<?xml version="1.0" encoding="utf-8" standalone="no"?>
<!DOCTYPE svg PUBLIC "-//W3C//DTD SVG 1.1//EN"
  "http://www.w3.org/Graphics/SVG/1.1/DTD/svg11.dtd">
<svg xmlns:xlink="http://www.w3.org/1999/xlink" width="579.888pt" height="579.888pt" viewBox="0 0 579.888 579.888" xmlns="http://www.w3.org/2000/svg" version="1.1">
 <metadata>
  <rdf:RDF xmlns:dc="http://purl.org/dc/elements/1.1/" xmlns:cc="http://creativecommons.org/ns#" xmlns:rdf="http://www.w3.org/1999/02/22-rdf-syntax-ns#">
   <cc:Work>
    <dc:type rdf:resource="http://purl.org/dc/dcmitype/StillImage"/>
    <dc:date>2026-08-06T00:20:15.564429</dc:date>
    <dc:format>image/svg+xml</dc:format>
    <dc:creator>
     <cc:Agent>
      <dc:title>Matplotlib v3.11.0, https://matplotlib.org/</dc:title>
     </cc:Agent>
    </dc:creator>
   </cc:Work>
  </rdf:RDF>
 </metadata>
 <defs>
  <style type="text/css">*{stroke-linejoin: round; stroke-linecap: butt}</style>
 </defs>
 <g id="figure_1">
  <g id="patch_1">
   <path d="M 0 579.888 
L 579.888 579.888 
L 579.888 0 
L 0 0 
z
" style="fill: #f9f8f5"/>
  </g>
  <g id="axes_1">
   <g id="line2d_1">
    <path d="M 72.23112 75.05856 
L 72.23112 527.44896 
" clip-path="url(#pd1b72f66bc)" style="fill: none; stroke-dasharray: 3.7,1.6; stroke-dashoffset: 0; stroke: #d3d1c7"/>
   </g>
   <g id="line2d_2">
    <path d="M 134.4348 75.05856 
L 134.4348 527.44896 
" clip-path="url(#pd1b72f66bc)" style="fill: none; stroke-dasharray: 3.7,1.6; stroke-dashoffset: 0; stroke: #d3d1c7"/>
   </g>
   <g id="line2d_3">
    <path d="M 196.63848 75.05856 
L 196.63848 527.44896 
" clip-path="url(#pd1b72f66bc)" style="fill: none; stroke-dasharray: 3.7,1.6; stroke-dashoffset: 0; stroke: #d3d1c7"/>
   </g>
   <g id="line2d_4">
    <path d="M 258.84216 75.05856 
L 258.84216 527.44896 
" clip-path="url(#pd1b72f66bc)" style="fill: none; stroke-dasharray: 3.7,1.6; stroke-dashoffset: 0; stroke: #d3d1c7"/>
   </g>
   <g id="line2d_5">
    <path d="M 321.04584 75.05856 
L 321.04584 527.44896 
" clip-path="url(#pd1b72f66bc)" style="fill: none; stroke-dasharray: 3.7,1.6; stroke-dashoffset: 0; stroke: #d3d1c7"/>
   </g>
   <g id="line2d_6">
    <path d="M 383.24952 75.05856 
L 383.24952 527.44896 
" clip-path="url(#pd1b72f66bc)" style="fill: none; stroke-dasharray: 3.7,1.6; stroke-dashoffset: 0; stroke: #d3d1c7"/>
   </g>
   <g id="line2d_7">
    <path d="M 445.4532 75.05856 
L 445.4532 527.44896 
" clip-path="url(#pd1b72f66bc)" style="fill: none; stroke-dasharray: 3.7,1.6; stroke-dashoffset: 0; stroke: #d3d1c7"/>
   </g>
   <g id="line2d_8">
    <path d="M 507.65688 75.05856 
L 507.65688 527.44896 
" clip-path="url(#pd1b72f66bc)" style="fill: none; stroke-dasharray: 3.7,1.6; stroke-dashoffset: 0; stroke: #d3d1c7"/>
   </g>
   <g id="patch_2">
    <path d="M 129.910896 122.700924 
L 138.958704 122.700924 
L 138.958704 109.977444 
L 129.910896 109.977444 
z
" clip-path="url(#pd1b72f66bc)" style="fill: #eeedfe; stroke: #3c3489; stroke-width: 0.6; stroke-linejoin: miter"/>
   </g>
   <g id="patch_3">
    <path d="M 192.114576 150.975324 
L 201.162384 150.975324 
L 201.162384 138.251844 
L 192.114576 138.251844 
z
" clip-path="url(#pd1b72f66bc)" style="fill: #eeedfe; stroke: #3c3489; stroke-width: 0.6; stroke-linejoin: miter"/>
   </g>
   <g id="patch_4">
    <path d="M 254.318256 179.249724 
L 263.366064 179.249724 
L 263.366064 166.526244 
L 254.318256 166.526244 
z
" clip-path="url(#pd1b72f66bc)" style="fill: #eeedfe; stroke: #3c3489; stroke-width: 0.6; stroke-linejoin: miter"/>
   </g>
   <g id="patch_5">
    <path d="M 192.114576 207.524124 
L 201.162384 207.524124 
L 201.162384 194.800644 
L 192.114576 194.800644 
z
" clip-path="url(#pd1b72f66bc)" style="fill: #eeedfe; stroke: #3c3489; stroke-width: 0.6; stroke-linejoin: miter"/>
   </g>
   <g id="patch_6">
    <path d="M 316.521936 235.798524 
L 325.569744 235.798524 
L 325.569744 223.075044 
L 316.521936 223.075044 
z
" clip-path="url(#pd1b72f66bc)" style="fill: #eeedfe; stroke: #3c3489; stroke-width: 0.6; stroke-linejoin: miter"/>
   </g>
   <g id="patch_7">
    <path d="M 192.114576 264.072924 
L 201.162384 264.072924 
L 201.162384 251.349444 
L 192.114576 251.349444 
z
" clip-path="url(#pd1b72f66bc)" style="fill: #eeedfe; stroke: #3c3489; stroke-width: 0.6; stroke-linejoin: miter"/>
   </g>
   <g id="patch_8">
    <path d="M 378.725616 292.347324 
L 387.773424 292.347324 
L 387.773424 279.623844 
L 378.725616 279.623844 
z
" clip-path="url(#pd1b72f66bc)" style="fill: #eeedfe; stroke: #3c3489; stroke-width: 0.6; stroke-linejoin: miter"/>
   </g>
   <g id="patch_9">
    <path d="M 192.114576 320.621724 
L 201.162384 320.621724 
L 201.162384 307.898244 
L 192.114576 307.898244 
z
" clip-path="url(#pd1b72f66bc)" style="fill: #eeedfe; stroke: #3c3489; stroke-width: 0.6; stroke-linejoin: miter"/>
   </g>
   <g id="patch_10">
    <path d="M 440.929296 348.896124 
L 449.977104 348.896124 
L 449.977104 336.172644 
L 440.929296 336.172644 
z
" clip-path="url(#pd1b72f66bc)" style="fill: #eeedfe; stroke: #3c3489; stroke-width: 0.6; stroke-linejoin: miter"/>
   </g>
   <g id="patch_11">
    <path d="M 192.114576 377.170524 
L 201.162384 377.170524 
L 201.162384 364.447044 
L 192.114576 364.447044 
z
" clip-path="url(#pd1b72f66bc)" style="fill: #eeedfe; stroke: #3c3489; stroke-width: 0.6; stroke-linejoin: miter"/>
   </g>
   <g id="patch_12">
    <path d="M 503.132976 405.444924 
L 512.180784 405.444924 
L 512.180784 392.721444 
L 503.132976 392.721444 
z
" clip-path="url(#pd1b72f66bc)" style="fill: #eeedfe; stroke: #3c3489; stroke-width: 0.6; stroke-linejoin: miter"/>
   </g>
   <g id="patch_13">
    <path d="M 192.114576 433.719324 
L 201.162384 433.719324 
L 201.162384 420.995844 
L 192.114576 420.995844 
z
" clip-path="url(#pd1b72f66bc)" style="fill: #eeedfe; stroke: #3c3489; stroke-width: 0.6; stroke-linejoin: miter"/>
   </g>
   <g id="patch_14">
    <path d="M 129.910896 461.993724 
L 138.958704 461.993724 
L 138.958704 449.270244 
L 129.910896 449.270244 
z
" clip-path="url(#pd1b72f66bc)" style="fill: #eeedfe; stroke: #3c3489; stroke-width: 0.6; stroke-linejoin: miter"/>
   </g>
   <g id="patch_15">
    <path d="M 67.707216 490.268124 
L 76.755024 490.268124 
L 76.755024 477.544644 
L 67.707216 477.544644 
z
" clip-path="url(#pd1b72f66bc)" style="fill: #eeedfe; stroke: #3c3489; stroke-width: 0.6; stroke-linejoin: miter"/>
   </g>
   <g id="patch_16">
    <path d="M 54.842364 77.320512 
L 89.619876 77.320512 
Q 100.929636 77.320512 100.929636 66.010752 
L 100.929636 50.177088 
Q 100.929636 38.867328 89.619876 38.867328 
L 54.842364 38.867328 
Q 43.532604 38.867328 43.532604 50.177088 
L 43.532604 66.010752 
Q 43.532604 77.320512 54.842364 77.320512 
z
" clip-path="url(#pd1b72f66bc)" style="fill: #eeedfe; stroke: #3c3489; stroke-width: 1.2; stroke-linejoin: miter"/>
   </g>
   <g id="patch_17">
    <path d="M 117.046044 77.320512 
L 151.823556 77.320512 
Q 163.133316 77.320512 163.133316 66.010752 
L 163.133316 50.177088 
Q 163.133316 38.867328 151.823556 38.867328 
L 117.046044 38.867328 
Q 105.736284 38.867328 105.736284 50.177088 
L 105.736284 66.010752 
Q 105.736284 77.320512 117.046044 77.320512 
z
" clip-path="url(#pd1b72f66bc)" style="fill: #eeedfe; stroke: #3c3489; stroke-width: 1.2; stroke-linejoin: miter"/>
   </g>
   <g id="patch_18">
    <path d="M 179.249724 77.320512 
L 214.027236 77.320512 
Q 225.336996 77.320512 225.336996 66.010752 
L 225.336996 50.177088 
Q 225.336996 38.867328 214.027236 38.867328 
L 179.249724 38.867328 
Q 167.939964 38.867328 167.939964 50.177088 
L 167.939964 66.010752 
Q 167.939964 77.320512 179.249724 77.320512 
z
" clip-path="url(#pd1b72f66bc)" style="fill: #eeedfe; stroke: #3c3489; stroke-width: 1.2; stroke-linejoin: miter"/>
   </g>
   <g id="patch_19">
    <path d="M 241.453404 77.320512 
L 276.230916 77.320512 
Q 287.540676 77.320512 287.540676 66.010752 
L 287.540676 50.177088 
Q 287.540676 38.867328 276.230916 38.867328 
L 241.453404 38.867328 
Q 230.143644 38.867328 230.143644 50.177088 
L 230.143644 66.010752 
Q 230.143644 77.320512 241.453404 77.320512 
z
" clip-path="url(#pd1b72f66bc)" style="fill: #eeedfe; stroke: #3c3489; stroke-width: 1.2; stroke-linejoin: miter"/>
   </g>
   <g id="patch_20">
    <path d="M 303.657084 77.320512 
L 338.434596 77.320512 
Q 349.744356 77.320512 349.744356 66.010752 
L 349.744356 50.177088 
Q 349.744356 38.867328 338.434596 38.867328 
L 303.657084 38.867328 
Q 292.347324 38.867328 292.347324 50.177088 
L 292.347324 66.010752 
Q 292.347324 77.320512 303.657084 77.320512 
z
" clip-path="url(#pd1b72f66bc)" style="fill: #eeedfe; stroke: #3c3489; stroke-width: 1.2; stroke-linejoin: miter"/>
   </g>
   <g id="patch_21">
    <path d="M 365.860764 77.320512 
L 400.638276 77.320512 
Q 411.948036 77.320512 411.948036 66.010752 
L 411.948036 50.177088 
Q 411.948036 38.867328 400.638276 38.867328 
L 365.860764 38.867328 
Q 354.551004 38.867328 354.551004 50.177088 
L 354.551004 66.010752 
Q 354.551004 77.320512 365.860764 77.320512 
z
" clip-path="url(#pd1b72f66bc)" style="fill: #eeedfe; stroke: #3c3489; stroke-width: 1.2; stroke-linejoin: miter"/>
   </g>
   <g id="patch_22">
    <path d="M 428.064444 77.320512 
L 462.841956 77.320512 
Q 474.151716 77.320512 474.151716 66.010752 
L 474.151716 50.177088 
Q 474.151716 38.867328 462.841956 38.867328 
L 428.064444 38.867328 
Q 416.754684 38.867328 416.754684 50.177088 
L 416.754684 66.010752 
Q 416.754684 77.320512 428.064444 77.320512 
z
" clip-path="url(#pd1b72f66bc)" style="fill: #eeedfe; stroke: #3c3489; stroke-width: 1.2; stroke-linejoin: miter"/>
   </g>
   <g id="patch_23">
    <path d="M 490.268124 77.320512 
L 525.045636 77.320512 
Q 536.355396 77.320512 536.355396 66.010752 
L 536.355396 50.177088 
Q 536.355396 38.867328 525.045636 38.867328 
L 490.268124 38.867328 
Q 478.958364 38.867328 478.958364 50.177088 
L 478.958364 66.010752 
Q 478.958364 77.320512 490.268124 77.320512 
z
" clip-path="url(#pd1b72f66bc)" style="fill: #eeedfe; stroke: #3c3489; stroke-width: 1.2; stroke-linejoin: miter"/>
   </g>
   <g id="patch_24">
    <path d="M 74.231934 118.88388 
Q 103.332068 118.88388 130.978758 118.88388 
" clip-path="url(#pd1b72f66bc)" style="fill: none; stroke: #3c3489; stroke-width: 1.3; stroke-linecap: round"/>
    <path d="M 126.578758 116.68388 
L 130.978758 118.88388 
L 126.578758 121.08388 
z
" clip-path="url(#pd1b72f66bc)" style="fill: #3c3489; stroke: #3c3489; stroke-width: 1.3; stroke-linecap: round"/>
   </g>
   <g id="patch_25">
    <path d="M 136.435614 147.15828 
Q 165.535748 147.15828 193.182438 147.15828 
" clip-path="url(#pd1b72f66bc)" style="fill: none; stroke: #3c3489; stroke-width: 1.3; stroke-linecap: round"/>
    <path d="M 188.782438 144.95828 
L 193.182438 147.15828 
L 188.782438 149.35828 
z
" clip-path="url(#pd1b72f66bc)" style="fill: #3c3489; stroke: #3c3489; stroke-width: 1.3; stroke-linecap: round"/>
   </g>
   <g id="patch_26">
    <path d="M 198.639294 175.43268 
Q 227.739428 175.43268 255.386118 175.43268 
" clip-path="url(#pd1b72f66bc)" style="fill: none; stroke: #3c3489; stroke-width: 1.3; stroke-linecap: round"/>
    <path d="M 250.986118 173.23268 
L 255.386118 175.43268 
L 250.986118 177.63268 
z
" clip-path="url(#pd1b72f66bc)" style="fill: #3c3489; stroke: #3c3489; stroke-width: 1.3; stroke-linecap: round"/>
   </g>
   <g id="patch_27">
    <path d="M 256.841346 203.70708 
Q 227.741212 203.70708 200.094522 203.70708 
" clip-path="url(#pd1b72f66bc)" style="fill: none; stroke-dasharray: 4.81,2.08; stroke-dashoffset: 0; stroke: #888780; stroke-width: 1.3; stroke-linecap: round"/>
    <path d="M 204.494522 205.90708 
L 200.094522 203.70708 
L 204.494522 201.50708 
" clip-path="url(#pd1b72f66bc)" style="fill: none; stroke-dasharray: 4.81,2.08; stroke-dashoffset: 0; stroke: #888780; stroke-width: 1.3; stroke-linecap: round"/>
   </g>
   <g id="patch_28">
    <path d="M 198.639294 231.98148 
Q 258.843307 231.98148 317.593876 231.98148 
" clip-path="url(#pd1b72f66bc)" style="fill: none; stroke: #3c3489; stroke-width: 1.3; stroke-linecap: round"/>
    <path d="M 313.193876 229.78148 
L 317.593876 231.98148 
L 313.193876 234.18148 
z
" clip-path="url(#pd1b72f66bc)" style="fill: #3c3489; stroke: #3c3489; stroke-width: 1.3; stroke-linecap: round"/>
   </g>
   <g id="patch_29">
    <path d="M 319.045026 260.25588 
Q 258.841013 260.25588 200.090444 260.25588 
" clip-path="url(#pd1b72f66bc)" style="fill: none; stroke-dasharray: 4.81,2.08; stroke-dashoffset: 0; stroke: #888780; stroke-width: 1.3; stroke-linecap: round"/>
    <path d="M 204.490444 262.45588 
L 200.090444 260.25588 
L 204.490444 258.05588 
" clip-path="url(#pd1b72f66bc)" style="fill: none; stroke-dasharray: 4.81,2.08; stroke-dashoffset: 0; stroke: #888780; stroke-width: 1.3; stroke-linecap: round"/>
   </g>
   <g id="patch_30">
    <path d="M 198.640243 288.53028 
Q 289.946286 288.53028 379.798884 288.53028 
" clip-path="url(#pd1b72f66bc)" style="fill: none; stroke: #3c3489; stroke-width: 1.3; stroke-linecap: round"/>
    <path d="M 375.398884 286.33028 
L 379.798884 288.53028 
L 375.398884 290.73028 
z
" clip-path="url(#pd1b72f66bc)" style="fill: #3c3489; stroke: #3c3489; stroke-width: 1.3; stroke-linecap: round"/>
   </g>
   <g id="patch_31">
    <path d="M 381.247757 316.80468 
Q 289.941714 316.80468 200.089116 316.80468 
" clip-path="url(#pd1b72f66bc)" style="fill: none; stroke-dasharray: 4.81,2.08; stroke-dashoffset: 0; stroke: #888780; stroke-width: 1.3; stroke-linecap: round"/>
    <path d="M 204.489116 319.00468 
L 200.089116 316.80468 
L 204.489116 314.60468 
" clip-path="url(#pd1b72f66bc)" style="fill: none; stroke-dasharray: 4.81,2.08; stroke-dashoffset: 0; stroke: #888780; stroke-width: 1.3; stroke-linecap: round"/>
   </g>
   <g id="patch_32">
    <path d="M 198.639294 345.07908 
Q 321.046352 345.07908 441.999967 345.07908 
" clip-path="url(#pd1b72f66bc)" style="fill: none; stroke: #3c3489; stroke-width: 1.3; stroke-linecap: round"/>
    <path d="M 437.599967 342.87908 
L 441.999967 345.07908 
L 437.599967 347.27908 
z
" clip-path="url(#pd1b72f66bc)" style="fill: #3c3489; stroke: #3c3489; stroke-width: 1.3; stroke-linecap: round"/>
   </g>
   <g id="patch_33">
    <path d="M 443.452386 373.35348 
Q 321.045328 373.35348 200.091713 373.35348 
" clip-path="url(#pd1b72f66bc)" style="fill: none; stroke-dasharray: 4.81,2.08; stroke-dashoffset: 0; stroke: #888780; stroke-width: 1.3; stroke-linecap: round"/>
    <path d="M 204.491713 375.55348 
L 200.091713 373.35348 
L 204.491713 371.15348 
" clip-path="url(#pd1b72f66bc)" style="fill: none; stroke-dasharray: 4.81,2.08; stroke-dashoffset: 0; stroke: #888780; stroke-width: 1.3; stroke-linecap: round"/>
   </g>
   <g id="patch_34">
    <path d="M 198.636447 401.62788 
Q 352.144667 401.62788 504.199443 401.62788 
" clip-path="url(#pd1b72f66bc)" style="fill: none; stroke: #3c3489; stroke-width: 1.3; stroke-linecap: round"/>
    <path d="M 499.799443 399.42788 
L 504.199443 401.62788 
L 499.799443 403.82788 
z
" clip-path="url(#pd1b72f66bc)" style="fill: #3c3489; stroke: #3c3489; stroke-width: 1.3; stroke-linecap: round"/>
   </g>
   <g id="patch_35">
    <path d="M 505.658913 429.90228 
Q 352.150693 429.90228 200.095917 429.90228 
" clip-path="url(#pd1b72f66bc)" style="fill: none; stroke-dasharray: 4.81,2.08; stroke-dashoffset: 0; stroke: #888780; stroke-width: 1.3; stroke-linecap: round"/>
    <path d="M 204.495917 432.10228 
L 200.095917 429.90228 
L 204.495917 427.70228 
" clip-path="url(#pd1b72f66bc)" style="fill: none; stroke-dasharray: 4.81,2.08; stroke-dashoffset: 0; stroke: #888780; stroke-width: 1.3; stroke-linecap: round"/>
   </g>
   <g id="patch_36">
    <path d="M 194.637666 458.17668 
Q 165.537532 458.17668 137.890842 458.17668 
" clip-path="url(#pd1b72f66bc)" style="fill: none; stroke: #3c3489; stroke-width: 1.3; stroke-linecap: round"/>
    <path d="M 142.290842 460.37668 
L 137.890842 458.17668 
L 142.290842 455.97668 
z
" clip-path="url(#pd1b72f66bc)" style="fill: #3c3489; stroke: #3c3489; stroke-width: 1.3; stroke-linecap: round"/>
   </g>
   <g id="patch_37">
    <path d="M 132.433986 486.45108 
Q 103.333852 486.45108 75.687162 486.45108 
" clip-path="url(#pd1b72f66bc)" style="fill: none; stroke-dasharray: 4.81,2.08; stroke-dashoffset: 0; stroke: #888780; stroke-width: 1.3; stroke-linecap: round"/>
    <path d="M 80.087162 488.65108 
L 75.687162 486.45108 
L 80.087162 484.25108 
" clip-path="url(#pd1b72f66bc)" style="fill: none; stroke-dasharray: 4.81,2.08; stroke-dashoffset: 0; stroke: #888780; stroke-width: 1.3; stroke-linecap: round"/>
   </g>
   <g id="text_1">
    <!-- Sequence Diagram — RAG Question Answering -->
    <g style="fill: #2c2c2a" transform="translate(131.73525 27.282296) scale(0.12 -0.12)">
     <defs>
      <path id="DejaVuSans-Bold-36" d="M 3834 4519 
L 3834 3531 
Q 3450 3703 3084 3790 
Q 2719 3878 2394 3878 
Q 1963 3878 1756 3759 
Q 1550 3641 1550 3391 
Q 1550 3203 1689 3098 
Q 1828 2994 2194 2919 
L 2706 2816 
Q 3484 2659 3812 2340 
Q 4141 2022 4141 1434 
Q 4141 663 3683 286 
Q 3225 -91 2284 -91 
Q 1841 -91 1394 -6 
Q 947 78 500 244 
L 500 1259 
Q 947 1022 1364 901 
Q 1781 781 2169 781 
Q 2563 781 2772 912 
Q 2981 1044 2981 1288 
Q 2981 1506 2839 1625 
Q 2697 1744 2272 1838 
L 1806 1941 
Q 1106 2091 782 2419 
Q 459 2747 459 3303 
Q 459 4000 909 4375 
Q 1359 4750 2203 4750 
Q 2588 4750 2994 4692 
Q 3400 4634 3834 4519 
z
" transform="scale(0.015625)"/>
      <path id="DejaVuSans-Bold-48" d="M 4031 1759 
L 4031 1441 
L 1416 1441 
Q 1456 1047 1700 850 
Q 1944 653 2381 653 
Q 2734 653 3104 758 
Q 3475 863 3866 1075 
L 3866 213 
Q 3469 63 3072 -14 
Q 2675 -91 2278 -91 
Q 1328 -91 801 392 
Q 275 875 275 1747 
Q 275 2603 792 3093 
Q 1309 3584 2216 3584 
Q 3041 3584 3536 3087 
Q 4031 2591 4031 1759 
z
M 2881 2131 
Q 2881 2450 2695 2645 
Q 2509 2841 2209 2841 
Q 1884 2841 1681 2658 
Q 1478 2475 1428 2131 
L 2881 2131 
z
" transform="scale(0.015625)"/>
      <path id="DejaVuSans-Bold-54" d="M 2181 2772 
Q 1825 2772 1636 2509 
Q 1447 2247 1447 1747 
Q 1447 1247 1636 984 
Q 1825 722 2181 722 
Q 2541 722 2730 984 
Q 2919 1247 2919 1747 
Q 2919 2247 2730 2509 
Q 2541 2772 2181 2772 
z
M 2919 506 
Q 2688 197 2409 53 
Q 2131 -91 1766 -91 
Q 1119 -91 703 423 
Q 288 938 288 1747 
Q 288 2556 703 3067 
Q 1119 3578 1766 3578 
Q 2131 3578 2409 3434 
Q 2688 3291 2919 2981 
L 2919 3500 
L 4044 3500 
L 4044 -1331 
L 2919 -1331 
L 2919 506 
z
" transform="scale(0.015625)"/>
      <path id="DejaVuSans-Bold-58" d="M 500 1363 
L 500 3500 
L 1625 3500 
L 1625 3150 
Q 1625 2866 1622 2436 
Q 1619 2006 1619 1863 
Q 1619 1441 1641 1255 
Q 1663 1069 1716 984 
Q 1784 875 1895 815 
Q 2006 756 2150 756 
Q 2500 756 2700 1025 
Q 2900 1294 2900 1772 
L 2900 3500 
L 4019 3500 
L 4019 0 
L 2900 0 
L 2900 506 
Q 2647 200 2364 54 
Q 2081 -91 1741 -91 
Q 1134 -91 817 281 
Q 500 653 500 1363 
z
" transform="scale(0.015625)"/>
      <path id="DejaVuSans-Bold-51" d="M 4056 2131 
L 4056 0 
L 2931 0 
L 2931 347 
L 2931 1631 
Q 2931 2084 2911 2256 
Q 2891 2428 2841 2509 
Q 2775 2619 2662 2680 
Q 2550 2741 2406 2741 
Q 2056 2741 1856 2470 
Q 1656 2200 1656 1722 
L 1656 0 
L 538 0 
L 538 3500 
L 1656 3500 
L 1656 2988 
Q 1909 3294 2193 3439 
Q 2478 3584 2822 3584 
Q 3428 3584 3742 3212 
Q 4056 2841 4056 2131 
z
" transform="scale(0.015625)"/>
      <path id="DejaVuSans-Bold-46" d="M 3366 3391 
L 3366 2478 
Q 3138 2634 2908 2709 
Q 2678 2784 2431 2784 
Q 1963 2784 1702 2511 
Q 1441 2238 1441 1747 
Q 1441 1256 1702 982 
Q 1963 709 2431 709 
Q 2694 709 2930 787 
Q 3166 866 3366 1019 
L 3366 103 
Q 3103 6 2833 -42 
Q 2563 -91 2291 -91 
Q 1344 -91 809 395 
Q 275 881 275 1747 
Q 275 2613 809 3098 
Q 1344 3584 2291 3584 
Q 2566 3584 2833 3536 
Q 3100 3488 3366 3391 
z
" transform="scale(0.015625)"/>
      <path id="DejaVuSans-Bold-3" transform="scale(0.015625)"/>
      <path id="DejaVuSans-Bold-27" d="M 1791 3756 
L 1791 909 
L 2222 909 
Q 2959 909 3348 1275 
Q 3738 1641 3738 2338 
Q 3738 3031 3350 3393 
Q 2963 3756 2222 3756 
L 1791 3756 
z
M 588 4666 
L 1856 4666 
Q 2919 4666 3439 4514 
Q 3959 4363 4331 4000 
Q 4659 3684 4818 3271 
Q 4978 2859 4978 2338 
Q 4978 1809 4818 1395 
Q 4659 981 4331 666 
Q 3956 303 3431 151 
Q 2906 0 1856 0 
L 588 0 
L 588 4666 
z
" transform="scale(0.015625)"/>
      <path id="DejaVuSans-Bold-4c" d="M 538 3500 
L 1656 3500 
L 1656 0 
L 538 0 
L 538 3500 
z
M 538 4863 
L 1656 4863 
L 1656 3950 
L 538 3950 
L 538 4863 
z
" transform="scale(0.015625)"/>
      <path id="DejaVuSans-Bold-44" d="M 2106 1575 
Q 1756 1575 1579 1456 
Q 1403 1338 1403 1106 
Q 1403 894 1545 773 
Q 1688 653 1941 653 
Q 2256 653 2472 879 
Q 2688 1106 2688 1447 
L 2688 1575 
L 2106 1575 
z
M 3816 1997 
L 3816 0 
L 2688 0 
L 2688 519 
Q 2463 200 2181 54 
Q 1900 -91 1497 -91 
Q 953 -91 614 226 
Q 275 544 275 1050 
Q 275 1666 698 1953 
Q 1122 2241 2028 2241 
L 2688 2241 
L 2688 2328 
Q 2688 2594 2478 2717 
Q 2269 2841 1825 2841 
Q 1466 2841 1156 2769 
Q 847 2697 581 2553 
L 581 3406 
Q 941 3494 1303 3539 
Q 1666 3584 2028 3584 
Q 2975 3584 3395 3211 
Q 3816 2838 3816 1997 
z
" transform="scale(0.015625)"/>
      <path id="DejaVuSans-Bold-4a" d="M 2919 594 
Q 2688 288 2409 144 
Q 2131 0 1766 0 
Q 1125 0 706 504 
Q 288 1009 288 1791 
Q 288 2575 706 3076 
Q 1125 3578 1766 3578 
Q 2131 3578 2409 3434 
Q 2688 3291 2919 2981 
L 2919 3500 
L 4044 3500 
L 4044 353 
Q 4044 -491 3511 -936 
Q 2978 -1381 1966 -1381 
Q 1638 -1381 1331 -1331 
Q 1025 -1281 716 -1178 
L 716 -306 
Q 1009 -475 1290 -558 
Q 1572 -641 1856 -641 
Q 2406 -641 2662 -400 
Q 2919 -159 2919 353 
L 2919 594 
z
M 2181 2772 
Q 1834 2772 1640 2515 
Q 1447 2259 1447 1791 
Q 1447 1309 1634 1061 
Q 1822 813 2181 813 
Q 2531 813 2725 1069 
Q 2919 1325 2919 1791 
Q 2919 2259 2725 2515 
Q 2531 2772 2181 2772 
z
" transform="scale(0.015625)"/>
      <path id="DejaVuSans-Bold-55" d="M 3138 2547 
Q 2991 2616 2845 2648 
Q 2700 2681 2553 2681 
Q 2122 2681 1889 2404 
Q 1656 2128 1656 1613 
L 1656 0 
L 538 0 
L 538 3500 
L 1656 3500 
L 1656 2925 
Q 1872 3269 2151 3426 
Q 2431 3584 2822 3584 
Q 2878 3584 2943 3579 
Q 3009 3575 3134 3559 
L 3138 2547 
z
" transform="scale(0.015625)"/>
      <path id="DejaVuSans-Bold-50" d="M 3781 2919 
Q 3994 3244 4286 3414 
Q 4578 3584 4928 3584 
Q 5531 3584 5847 3212 
Q 6163 2841 6163 2131 
L 6163 0 
L 5038 0 
L 5038 1825 
Q 5041 1866 5042 1909 
Q 5044 1953 5044 2034 
Q 5044 2406 4934 2573 
Q 4825 2741 4581 2741 
Q 4263 2741 4089 2478 
Q 3916 2216 3909 1719 
L 3909 0 
L 2784 0 
L 2784 1825 
Q 2784 2406 2684 2573 
Q 2584 2741 2328 2741 
Q 2006 2741 1831 2477 
Q 1656 2213 1656 1722 
L 1656 0 
L 531 0 
L 531 3500 
L 1656 3500 
L 1656 2988 
Q 1863 3284 2130 3434 
Q 2397 3584 2719 3584 
Q 3081 3584 3359 3409 
Q 3638 3234 3781 2919 
z
" transform="scale(0.015625)"/>
      <path id="DejaVuSans-Bold-af6" d="M 344 2156 
L 6056 2156 
L 6056 1350 
L 344 1350 
L 344 2156 
z
" transform="scale(0.015625)"/>
      <path id="DejaVuSans-Bold-35" d="M 2297 2597 
Q 2675 2597 2839 2737 
Q 3003 2878 3003 3200 
Q 3003 3519 2839 3656 
Q 2675 3794 2297 3794 
L 1791 3794 
L 1791 2597 
L 2297 2597 
z
M 1791 1766 
L 1791 0 
L 588 0 
L 588 4666 
L 2425 4666 
Q 3347 4666 3776 4356 
Q 4206 4047 4206 3378 
Q 4206 2916 3982 2619 
Q 3759 2322 3309 2181 
Q 3556 2125 3751 1926 
Q 3947 1728 4147 1325 
L 4800 0 
L 3519 0 
L 2950 1159 
Q 2778 1509 2601 1637 
Q 2425 1766 2131 1766 
L 1791 1766 
z
" transform="scale(0.015625)"/>
      <path id="DejaVuSans-Bold-24" d="M 3419 850 
L 1538 850 
L 1241 0 
L 31 0 
L 1759 4666 
L 3194 4666 
L 4922 0 
L 3713 0 
L 3419 850 
z
M 1838 1716 
L 3116 1716 
L 2478 3572 
L 1838 1716 
z
" transform="scale(0.015625)"/>
      <path id="DejaVuSans-Bold-2a" d="M 4781 347 
Q 4331 128 3847 18 
Q 3363 -91 2847 -91 
Q 1681 -91 1000 561 
Q 319 1213 319 2328 
Q 319 3456 1012 4103 
Q 1706 4750 2913 4750 
Q 3378 4750 3804 4662 
Q 4231 4575 4609 4403 
L 4609 3438 
Q 4219 3659 3833 3768 
Q 3447 3878 3059 3878 
Q 2341 3878 1952 3476 
Q 1563 3075 1563 2328 
Q 1563 1588 1938 1184 
Q 2313 781 3003 781 
Q 3191 781 3352 804 
Q 3513 828 3641 878 
L 3641 1784 
L 2906 1784 
L 2906 2591 
L 4781 2591 
L 4781 347 
z
" transform="scale(0.015625)"/>
      <path id="DejaVuSans-Bold-34" d="M 2847 -84 
L 2753 -84 
Q 1600 -84 959 553 
Q 319 1191 319 2328 
Q 319 3463 958 4106 
Q 1597 4750 2719 4750 
Q 3853 4750 4486 4112 
Q 5119 3475 5119 2328 
Q 5119 1541 4783 972 
Q 4447 403 3816 116 
L 4756 -934 
L 3609 -934 
L 2847 -84 
z
M 2719 3878 
Q 2169 3878 1866 3472 
Q 1563 3066 1563 2328 
Q 1563 1578 1859 1179 
Q 2156 781 2719 781 
Q 3272 781 3575 1187 
Q 3878 1594 3878 2328 
Q 3878 3066 3575 3472 
Q 3272 3878 2719 3878 
z
" transform="scale(0.015625)"/>
      <path id="DejaVuSans-Bold-56" d="M 3272 3391 
L 3272 2541 
Q 2913 2691 2578 2766 
Q 2244 2841 1947 2841 
Q 1628 2841 1473 2761 
Q 1319 2681 1319 2516 
Q 1319 2381 1436 2309 
Q 1553 2238 1856 2203 
L 2053 2175 
Q 2913 2066 3209 1816 
Q 3506 1566 3506 1031 
Q 3506 472 3093 190 
Q 2681 -91 1863 -91 
Q 1516 -91 1145 -36 
Q 775 19 384 128 
L 384 978 
Q 719 816 1070 734 
Q 1422 653 1784 653 
Q 2113 653 2278 743 
Q 2444 834 2444 1013 
Q 2444 1163 2330 1236 
Q 2216 1309 1875 1350 
L 1678 1375 
Q 931 1469 631 1722 
Q 331 1975 331 2491 
Q 331 3047 712 3315 
Q 1094 3584 1881 3584 
Q 2191 3584 2531 3537 
Q 2872 3491 3272 3391 
z
" transform="scale(0.015625)"/>
      <path id="DejaVuSans-Bold-57" d="M 1759 4494 
L 1759 3500 
L 2913 3500 
L 2913 2700 
L 1759 2700 
L 1759 1216 
Q 1759 972 1856 886 
Q 1953 800 2241 800 
L 2816 800 
L 2816 0 
L 1856 0 
Q 1194 0 917 276 
Q 641 553 641 1216 
L 641 2700 
L 84 2700 
L 84 3500 
L 641 3500 
L 641 4494 
L 1759 4494 
z
" transform="scale(0.015625)"/>
      <path id="DejaVuSans-Bold-52" d="M 2203 2784 
Q 1831 2784 1636 2517 
Q 1441 2250 1441 1747 
Q 1441 1244 1636 976 
Q 1831 709 2203 709 
Q 2569 709 2762 976 
Q 2956 1244 2956 1747 
Q 2956 2250 2762 2517 
Q 2569 2784 2203 2784 
z
M 2203 3584 
Q 3106 3584 3614 3096 
Q 4122 2609 4122 1747 
Q 4122 884 3614 396 
Q 3106 -91 2203 -91 
Q 1297 -91 786 396 
Q 275 884 275 1747 
Q 275 2609 786 3096 
Q 1297 3584 2203 3584 
z
" transform="scale(0.015625)"/>
      <path id="DejaVuSans-Bold-5a" d="M 225 3500 
L 1313 3500 
L 1900 1088 
L 2491 3500 
L 3425 3500 
L 4013 1113 
L 4603 3500 
L 5691 3500 
L 4769 0 
L 3547 0 
L 2956 2406 
L 2369 0 
L 1147 0 
L 225 3500 
z
" transform="scale(0.015625)"/>
     </defs>
     <use xlink:href="#DejaVuSans-Bold-36"/>
     <use xlink:href="#DejaVuSans-Bold-48" transform="translate(72.015625 0)"/>
     <use xlink:href="#DejaVuSans-Bold-54" transform="translate(139.84375 0)"/>
     <use xlink:href="#DejaVuSans-Bold-58" transform="translate(211.421875 0)"/>
     <use xlink:href="#DejaVuSans-Bold-48" transform="translate(282.609375 0)"/>
     <use xlink:href="#DejaVuSans-Bold-51" transform="translate(350.4375 0)"/>
     <use xlink:href="#DejaVuSans-Bold-46" transform="translate(421.625 0)"/>
     <use xlink:href="#DejaVuSans-Bold-48" transform="translate(480.90625 0)"/>
     <use xlink:href="#DejaVuSans-Bold-3" transform="translate(548.734375 0)"/>
     <use xlink:href="#DejaVuSans-Bold-27" transform="translate(583.546875 0)"/>
     <use xlink:href="#DejaVuSans-Bold-4c" transform="translate(666.5625 0)"/>
     <use xlink:href="#DejaVuSans-Bold-44" transform="translate(700.84375 0)"/>
     <use xlink:href="#DejaVuSans-Bold-4a" transform="translate(768.328125 0)"/>
     <use xlink:href="#DejaVuSans-Bold-55" transform="translate(839.90625 0)"/>
     <use xlink:href="#DejaVuSans-Bold-44" transform="translate(889.21875 0)"/>
     <use xlink:href="#DejaVuSans-Bold-50" transform="translate(956.703125 0)"/>
     <use xlink:href="#DejaVuSans-Bold-3" transform="translate(1060.90625 0)"/>
     <use xlink:href="#DejaVuSans-Bold-af6" transform="translate(1095.71875 0)"/>
     <use xlink:href="#DejaVuSans-Bold-3" transform="translate(1195.71875 0)"/>
     <use xlink:href="#DejaVuSans-Bold-35" transform="translate(1230.53125 0)"/>
     <use xlink:href="#DejaVuSans-Bold-24" transform="translate(1307.53125 0)"/>
     <use xlink:href="#DejaVuSans-Bold-2a" transform="translate(1384.921875 0)"/>
     <use xlink:href="#DejaVuSans-Bold-3" transform="translate(1467 0)"/>
     <use xlink:href="#DejaVuSans-Bold-34" transform="translate(1501.8125 0)"/>
     <use xlink:href="#DejaVuSans-Bold-58" transform="translate(1586.828125 0)"/>
     <use xlink:href="#DejaVuSans-Bold-48" transform="translate(1658.015625 0)"/>
     <use xlink:href="#DejaVuSans-Bold-56" transform="translate(1725.84375 0)"/>
     <use xlink:href="#DejaVuSans-Bold-57" transform="translate(1785.359375 0)"/>
     <use xlink:href="#DejaVuSans-Bold-4c" transform="translate(1833.15625 0)"/>
     <use xlink:href="#DejaVuSans-Bold-52" transform="translate(1867.4375 0)"/>
     <use xlink:href="#DejaVuSans-Bold-51" transform="translate(1936.140625 0)"/>
     <use xlink:href="#DejaVuSans-Bold-3" transform="translate(2007.328125 0)"/>
     <use xlink:href="#DejaVuSans-Bold-24" transform="translate(2042.140625 0)"/>
     <use xlink:href="#DejaVuSans-Bold-51" transform="translate(2119.53125 0)"/>
     <use xlink:href="#DejaVuSans-Bold-56" transform="translate(2190.71875 0)"/>
     <use xlink:href="#DejaVuSans-Bold-5a" transform="translate(2250.234375 0)"/>
     <use xlink:href="#DejaVuSans-Bold-48" transform="translate(2342.625 0)"/>
     <use xlink:href="#DejaVuSans-Bold-55" transform="translate(2410.453125 0)"/>
     <use xlink:href="#DejaVuSans-Bold-4c" transform="translate(2459.765625 0)"/>
     <use xlink:href="#DejaVuSans-Bold-51" transform="translate(2494.046875 0)"/>
     <use xlink:href="#DejaVuSans-Bold-4a" transform="translate(2565.234375 0)"/>
    </g>
   </g>
   <g id="text_2">
    <!-- User -->
    <g style="fill: #3c3489" transform="translate(63.85069 59.782397) scale(0.065 -0.065)">
     <defs>
      <path id="DejaVuSans-Bold-38" d="M 588 4666 
L 1791 4666 
L 1791 1869 
Q 1791 1291 1980 1042 
Q 2169 794 2597 794 
Q 3028 794 3217 1042 
Q 3406 1291 3406 1869 
L 3406 4666 
L 4609 4666 
L 4609 1869 
Q 4609 878 4112 393 
Q 3616 -91 2597 -91 
Q 1581 -91 1084 393 
Q 588 878 588 1869 
L 588 4666 
z
" transform="scale(0.015625)"/>
     </defs>
     <use xlink:href="#DejaVuSans-Bold-38"/>
     <use xlink:href="#DejaVuSans-Bold-56" transform="translate(81.203125 0)"/>
     <use xlink:href="#DejaVuSans-Bold-48" transform="translate(140.71875 0)"/>
     <use xlink:href="#DejaVuSans-Bold-55" transform="translate(208.546875 0)"/>
    </g>
   </g>
   <g id="text_3">
    <!-- Frontend -->
    <g style="fill: #3c3489" transform="translate(117.875542 59.78265) scale(0.065 -0.065)">
     <defs>
      <path id="DejaVuSans-Bold-29" d="M 588 4666 
L 3834 4666 
L 3834 3756 
L 1791 3756 
L 1791 2888 
L 3713 2888 
L 3713 1978 
L 1791 1978 
L 1791 0 
L 588 0 
L 588 4666 
z
" transform="scale(0.015625)"/>
      <path id="DejaVuSans-Bold-47" d="M 2919 2988 
L 2919 4863 
L 4044 4863 
L 4044 0 
L 2919 0 
L 2919 506 
Q 2688 197 2409 53 
Q 2131 -91 1766 -91 
Q 1119 -91 703 423 
Q 288 938 288 1747 
Q 288 2556 703 3070 
Q 1119 3584 1766 3584 
Q 2128 3584 2408 3439 
Q 2688 3294 2919 2988 
z
M 2181 722 
Q 2541 722 2730 984 
Q 2919 1247 2919 1747 
Q 2919 2247 2730 2509 
Q 2541 2772 2181 2772 
Q 1825 2772 1636 2509 
Q 1447 2247 1447 1747 
Q 1447 1247 1636 984 
Q 1825 722 2181 722 
z
" transform="scale(0.015625)"/>
     </defs>
     <use xlink:href="#DejaVuSans-Bold-29"/>
     <use xlink:href="#DejaVuSans-Bold-55" transform="translate(61.921875 0)"/>
     <use xlink:href="#DejaVuSans-Bold-52" transform="translate(111.234375 0)"/>
     <use xlink:href="#DejaVuSans-Bold-51" transform="translate(179.9375 0)"/>
     <use xlink:href="#DejaVuSans-Bold-57" transform="translate(251.125 0)"/>
     <use xlink:href="#DejaVuSans-Bold-48" transform="translate(298.921875 0)"/>
     <use xlink:href="#DejaVuSans-Bold-51" transform="translate(366.75 0)"/>
     <use xlink:href="#DejaVuSans-Bold-47" transform="translate(437.9375 0)"/>
    </g>
   </g>
   <g id="text_4">
    <!-- FastAPI -->
    <g style="fill: #3c3489" transform="translate(182.82141 59.782397) scale(0.065 -0.065)">
     <defs>
      <path id="DejaVuSans-Bold-33" d="M 588 4666 
L 2584 4666 
Q 3475 4666 3951 4270 
Q 4428 3875 4428 3144 
Q 4428 2409 3951 2014 
Q 3475 1619 2584 1619 
L 1791 1619 
L 1791 0 
L 588 0 
L 588 4666 
z
M 1791 3794 
L 1791 2491 
L 2456 2491 
Q 2806 2491 2997 2661 
Q 3188 2831 3188 3144 
Q 3188 3456 2997 3625 
Q 2806 3794 2456 3794 
L 1791 3794 
z
" transform="scale(0.015625)"/>
      <path id="DejaVuSans-Bold-2c" d="M 588 4666 
L 1791 4666 
L 1791 0 
L 588 0 
L 588 4666 
z
" transform="scale(0.015625)"/>
     </defs>
     <use xlink:href="#DejaVuSans-Bold-29"/>
     <use xlink:href="#DejaVuSans-Bold-44" transform="translate(62.453125 0)"/>
     <use xlink:href="#DejaVuSans-Bold-56" transform="translate(129.9375 0)"/>
     <use xlink:href="#DejaVuSans-Bold-57" transform="translate(189.453125 0)"/>
     <use xlink:href="#DejaVuSans-Bold-24" transform="translate(237.25 0)"/>
     <use xlink:href="#DejaVuSans-Bold-33" transform="translate(314.640625 0)"/>
     <use xlink:href="#DejaVuSans-Bold-2c" transform="translate(387.9375 0)"/>
    </g>
   </g>
   <g id="text_5">
    <!-- SBERT -->
    <g style="fill: #3c3489" transform="translate(247.230519 59.782397) scale(0.065 -0.065)">
     <defs>
      <path id="DejaVuSans-Bold-25" d="M 2456 2859 
Q 2741 2859 2887 2984 
Q 3034 3109 3034 3353 
Q 3034 3594 2887 3720 
Q 2741 3847 2456 3847 
L 1791 3847 
L 1791 2859 
L 2456 2859 
z
M 2497 819 
Q 2859 819 3042 972 
Q 3225 1125 3225 1434 
Q 3225 1738 3044 1889 
Q 2863 2041 2497 2041 
L 1791 2041 
L 1791 819 
L 2497 819 
z
M 3616 2497 
Q 4003 2384 4215 2081 
Q 4428 1778 4428 1338 
Q 4428 663 3972 331 
Q 3516 0 2584 0 
L 588 0 
L 588 4666 
L 2394 4666 
Q 3366 4666 3802 4372 
Q 4238 4078 4238 3431 
Q 4238 3091 4078 2852 
Q 3919 2613 3616 2497 
z
" transform="scale(0.015625)"/>
      <path id="DejaVuSans-Bold-28" d="M 588 4666 
L 3834 4666 
L 3834 3756 
L 1791 3756 
L 1791 2888 
L 3713 2888 
L 3713 1978 
L 1791 1978 
L 1791 909 
L 3903 909 
L 3903 0 
L 588 0 
L 588 4666 
z
" transform="scale(0.015625)"/>
      <path id="DejaVuSans-Bold-37" d="M 31 4666 
L 4331 4666 
L 4331 3756 
L 2784 3756 
L 2784 0 
L 1581 0 
L 1581 3756 
L 31 3756 
L 31 4666 
z
" transform="scale(0.015625)"/>
     </defs>
     <use xlink:href="#DejaVuSans-Bold-36"/>
     <use xlink:href="#DejaVuSans-Bold-25" transform="translate(72.015625 0)"/>
     <use xlink:href="#DejaVuSans-Bold-28" transform="translate(148.234375 0)"/>
     <use xlink:href="#DejaVuSans-Bold-35" transform="translate(216.546875 0)"/>
     <use xlink:href="#DejaVuSans-Bold-37" transform="translate(289.0625 0)"/>
    </g>
   </g>
   <g id="text_6">
    <!-- FAISS -->
    <g style="fill: #3c3489" transform="translate(310.938848 59.782397) scale(0.065 -0.065)">
     <use xlink:href="#DejaVuSans-Bold-29"/>
     <use xlink:href="#DejaVuSans-Bold-24" transform="translate(56.84375 0)"/>
     <use xlink:href="#DejaVuSans-Bold-2c" transform="translate(134.234375 0)"/>
     <use xlink:href="#DejaVuSans-Bold-36" transform="translate(171.4375 0)"/>
     <use xlink:href="#DejaVuSans-Bold-36" transform="translate(238.96875 0)"/>
    </g>
   </g>
   <g id="text_7">
    <!-- Metadata -->
    <g style="fill: #3c3489" transform="translate(365.798036 55.882016) scale(0.065 -0.065)">
     <defs>
      <path id="DejaVuSans-Bold-30" d="M 588 4666 
L 2119 4666 
L 3181 2169 
L 4250 4666 
L 5778 4666 
L 5778 0 
L 4641 0 
L 4641 3413 
L 3566 897 
L 2803 897 
L 1728 3413 
L 1728 0 
L 588 0 
L 588 4666 
z
" transform="scale(0.015625)"/>
     </defs>
     <use xlink:href="#DejaVuSans-Bold-30"/>
     <use xlink:href="#DejaVuSans-Bold-48" transform="translate(99.515625 0)"/>
     <use xlink:href="#DejaVuSans-Bold-57" transform="translate(167.34375 0)"/>
     <use xlink:href="#DejaVuSans-Bold-44" transform="translate(215.140625 0)"/>
     <use xlink:href="#DejaVuSans-Bold-47" transform="translate(282.625 0)"/>
     <use xlink:href="#DejaVuSans-Bold-44" transform="translate(354.203125 0)"/>
     <use xlink:href="#DejaVuSans-Bold-57" transform="translate(421.6875 0)"/>
     <use xlink:href="#DejaVuSans-Bold-44" transform="translate(469.484375 0)"/>
    </g>
    <!-- Store -->
    <g style="fill: #3c3489" transform="translate(373.315692 63.683285) scale(0.065 -0.065)">
     <use xlink:href="#DejaVuSans-Bold-36"/>
     <use xlink:href="#DejaVuSans-Bold-57" transform="translate(72.015625 0)"/>
     <use xlink:href="#DejaVuSans-Bold-52" transform="translate(119.8125 0)"/>
     <use xlink:href="#DejaVuSans-Bold-55" transform="translate(188.515625 0)"/>
     <use xlink:href="#DejaVuSans-Bold-48" transform="translate(237.828125 0)"/>
    </g>
   </g>
   <g id="text_8">
    <!-- Prompt -->
    <g style="fill: #3c3489" transform="translate(431.969255 55.881508) scale(0.065 -0.065)">
     <defs>
      <path id="DejaVuSans-Bold-53" d="M 1656 506 
L 1656 -1331 
L 538 -1331 
L 538 3500 
L 1656 3500 
L 1656 2988 
Q 1888 3294 2169 3439 
Q 2450 3584 2816 3584 
Q 3463 3584 3878 3070 
Q 4294 2556 4294 1747 
Q 4294 938 3878 423 
Q 3463 -91 2816 -91 
Q 2450 -91 2169 54 
Q 1888 200 1656 506 
z
M 2400 2772 
Q 2041 2772 1848 2508 
Q 1656 2244 1656 1747 
Q 1656 1250 1848 986 
Q 2041 722 2400 722 
Q 2759 722 2948 984 
Q 3138 1247 3138 1747 
Q 3138 2247 2948 2509 
Q 2759 2772 2400 2772 
z
" transform="scale(0.015625)"/>
     </defs>
     <use xlink:href="#DejaVuSans-Bold-33"/>
     <use xlink:href="#DejaVuSans-Bold-55" transform="translate(73.296875 0)"/>
     <use xlink:href="#DejaVuSans-Bold-52" transform="translate(122.609375 0)"/>
     <use xlink:href="#DejaVuSans-Bold-50" transform="translate(191.3125 0)"/>
     <use xlink:href="#DejaVuSans-Bold-53" transform="translate(295.515625 0)"/>
     <use xlink:href="#DejaVuSans-Bold-57" transform="translate(367.09375 0)"/>
    </g>
    <!-- Builder -->
    <g style="fill: #3c3489" transform="translate(432.300856 63.683285) scale(0.065 -0.065)">
     <defs>
      <path id="DejaVuSans-Bold-4f" d="M 538 4863 
L 1656 4863 
L 1656 0 
L 538 0 
L 538 4863 
z
" transform="scale(0.015625)"/>
     </defs>
     <use xlink:href="#DejaVuSans-Bold-25"/>
     <use xlink:href="#DejaVuSans-Bold-58" transform="translate(76.21875 0)"/>
     <use xlink:href="#DejaVuSans-Bold-4c" transform="translate(147.40625 0)"/>
     <use xlink:href="#DejaVuSans-Bold-4f" transform="translate(181.6875 0)"/>
     <use xlink:href="#DejaVuSans-Bold-47" transform="translate(215.96875 0)"/>
     <use xlink:href="#DejaVuSans-Bold-48" transform="translate(287.546875 0)"/>
     <use xlink:href="#DejaVuSans-Bold-55" transform="translate(355.375 0)"/>
    </g>
   </g>
   <g id="text_9">
    <!-- Anthropic -->
    <g style="fill: #3c3489" transform="translate(489.758521 55.882016) scale(0.065 -0.065)">
     <defs>
      <path id="DejaVuSans-Bold-4b" d="M 4056 2131 
L 4056 0 
L 2931 0 
L 2931 347 
L 2931 1625 
Q 2931 2084 2911 2256 
Q 2891 2428 2841 2509 
Q 2775 2619 2662 2680 
Q 2550 2741 2406 2741 
Q 2056 2741 1856 2470 
Q 1656 2200 1656 1722 
L 1656 0 
L 538 0 
L 538 4863 
L 1656 4863 
L 1656 2988 
Q 1909 3294 2193 3439 
Q 2478 3584 2822 3584 
Q 3428 3584 3742 3212 
Q 4056 2841 4056 2131 
z
" transform="scale(0.015625)"/>
     </defs>
     <use xlink:href="#DejaVuSans-Bold-24"/>
     <use xlink:href="#DejaVuSans-Bold-51" transform="translate(77.390625 0)"/>
     <use xlink:href="#DejaVuSans-Bold-57" transform="translate(148.578125 0)"/>
     <use xlink:href="#DejaVuSans-Bold-4b" transform="translate(196.375 0)"/>
     <use xlink:href="#DejaVuSans-Bold-55" transform="translate(267.5625 0)"/>
     <use xlink:href="#DejaVuSans-Bold-52" transform="translate(316.875 0)"/>
     <use xlink:href="#DejaVuSans-Bold-53" transform="translate(385.578125 0)"/>
     <use xlink:href="#DejaVuSans-Bold-4c" transform="translate(457.15625 0)"/>
     <use xlink:href="#DejaVuSans-Bold-46" transform="translate(491.4375 0)"/>
    </g>
    <!-- API -->
    <g style="fill: #3c3489" transform="translate(501.550435 63.683285) scale(0.065 -0.065)">
     <use xlink:href="#DejaVuSans-Bold-24"/>
     <use xlink:href="#DejaVuSans-Bold-33" transform="translate(77.390625 0)"/>
     <use xlink:href="#DejaVuSans-Bold-2c" transform="translate(150.6875 0)"/>
    </g>
   </g>
   <g id="text_10">
    <!-- Ask question -->
    <g style="fill: #2c2c2a" transform="translate(84.066397 110.263924) scale(0.06 -0.06)">
     <defs>
      <path id="DejaVuSans-24" d="M 2188 4044 
L 1331 1722 
L 3047 1722 
L 2188 4044 
z
M 1831 4666 
L 2547 4666 
L 4325 0 
L 3669 0 
L 3244 1197 
L 1141 1197 
L 716 0 
L 50 0 
L 1831 4666 
z
" transform="scale(0.015625)"/>
      <path id="DejaVuSans-56" d="M 2834 3397 
L 2834 2853 
Q 2591 2978 2328 3040 
Q 2066 3103 1784 3103 
Q 1356 3103 1142 2972 
Q 928 2841 928 2578 
Q 928 2378 1081 2264 
Q 1234 2150 1697 2047 
L 1894 2003 
Q 2506 1872 2764 1633 
Q 3022 1394 3022 966 
Q 3022 478 2636 193 
Q 2250 -91 1575 -91 
Q 1294 -91 989 -36 
Q 684 19 347 128 
L 347 722 
Q 666 556 975 473 
Q 1284 391 1588 391 
Q 1994 391 2212 530 
Q 2431 669 2431 922 
Q 2431 1156 2273 1281 
Q 2116 1406 1581 1522 
L 1381 1569 
Q 847 1681 609 1914 
Q 372 2147 372 2553 
Q 372 3047 722 3315 
Q 1072 3584 1716 3584 
Q 2034 3584 2315 3537 
Q 2597 3491 2834 3397 
z
" transform="scale(0.015625)"/>
      <path id="DejaVuSans-4e" d="M 581 4863 
L 1159 4863 
L 1159 1991 
L 2875 3500 
L 3609 3500 
L 1753 1863 
L 3688 0 
L 2938 0 
L 1159 1709 
L 1159 0 
L 581 0 
L 581 4863 
z
" transform="scale(0.015625)"/>
      <path id="DejaVuSans-3" transform="scale(0.015625)"/>
      <path id="DejaVuSans-54" d="M 947 1747 
Q 947 1113 1208 752 
Q 1469 391 1925 391 
Q 2381 391 2643 752 
Q 2906 1113 2906 1747 
Q 2906 2381 2643 2742 
Q 2381 3103 1925 3103 
Q 1469 3103 1208 2742 
Q 947 2381 947 1747 
z
M 2906 525 
Q 2725 213 2448 61 
Q 2172 -91 1784 -91 
Q 1150 -91 751 415 
Q 353 922 353 1747 
Q 353 2572 751 3078 
Q 1150 3584 1784 3584 
Q 2172 3584 2448 3432 
Q 2725 3281 2906 2969 
L 2906 3500 
L 3481 3500 
L 3481 -1331 
L 2906 -1331 
L 2906 525 
z
" transform="scale(0.015625)"/>
      <path id="DejaVuSans-58" d="M 544 1381 
L 544 3500 
L 1119 3500 
L 1119 1403 
Q 1119 906 1312 657 
Q 1506 409 1894 409 
Q 2359 409 2629 706 
Q 2900 1003 2900 1516 
L 2900 3500 
L 3475 3500 
L 3475 0 
L 2900 0 
L 2900 538 
Q 2691 219 2414 64 
Q 2138 -91 1772 -91 
Q 1169 -91 856 284 
Q 544 659 544 1381 
z
M 1991 3584 
L 1991 3584 
z
" transform="scale(0.015625)"/>
      <path id="DejaVuSans-48" d="M 3597 1894 
L 3597 1613 
L 953 1613 
Q 991 1019 1311 708 
Q 1631 397 2203 397 
Q 2534 397 2845 478 
Q 3156 559 3463 722 
L 3463 178 
Q 3153 47 2828 -22 
Q 2503 -91 2169 -91 
Q 1331 -91 842 396 
Q 353 884 353 1716 
Q 353 2575 817 3079 
Q 1281 3584 2069 3584 
Q 2775 3584 3186 3129 
Q 3597 2675 3597 1894 
z
M 3022 2063 
Q 3016 2534 2758 2815 
Q 2500 3097 2075 3097 
Q 1594 3097 1305 2825 
Q 1016 2553 972 2059 
L 3022 2063 
z
" transform="scale(0.015625)"/>
      <path id="DejaVuSans-57" d="M 1172 4494 
L 1172 3500 
L 2356 3500 
L 2356 3053 
L 1172 3053 
L 1172 1153 
Q 1172 725 1289 603 
Q 1406 481 1766 481 
L 2356 481 
L 2356 0 
L 1766 0 
Q 1100 0 847 248 
Q 594 497 594 1153 
L 594 3053 
L 172 3053 
L 172 3500 
L 594 3500 
L 594 4494 
L 1172 4494 
z
" transform="scale(0.015625)"/>
      <path id="DejaVuSans-4c" d="M 603 3500 
L 1178 3500 
L 1178 0 
L 603 0 
L 603 3500 
z
M 603 4863 
L 1178 4863 
L 1178 4134 
L 603 4134 
L 603 4863 
z
" transform="scale(0.015625)"/>
      <path id="DejaVuSans-52" d="M 1959 3097 
Q 1497 3097 1228 2736 
Q 959 2375 959 1747 
Q 959 1119 1226 758 
Q 1494 397 1959 397 
Q 2419 397 2687 759 
Q 2956 1122 2956 1747 
Q 2956 2369 2687 2733 
Q 2419 3097 1959 3097 
z
M 1959 3584 
Q 2709 3584 3137 3096 
Q 3566 2609 3566 1747 
Q 3566 888 3137 398 
Q 2709 -91 1959 -91 
Q 1206 -91 779 398 
Q 353 888 353 1747 
Q 353 2609 779 3096 
Q 1206 3584 1959 3584 
z
" transform="scale(0.015625)"/>
      <path id="DejaVuSans-51" d="M 3513 2113 
L 3513 0 
L 2938 0 
L 2938 2094 
Q 2938 2591 2744 2837 
Q 2550 3084 2163 3084 
Q 1697 3084 1428 2787 
Q 1159 2491 1159 1978 
L 1159 0 
L 581 0 
L 581 3500 
L 1159 3500 
L 1159 2956 
Q 1366 3272 1645 3428 
Q 1925 3584 2291 3584 
Q 2894 3584 3203 3211 
Q 3513 2838 3513 2113 
z
" transform="scale(0.015625)"/>
     </defs>
     <use xlink:href="#DejaVuSans-24"/>
     <use xlink:href="#DejaVuSans-56" transform="translate(68.40625 0)"/>
     <use xlink:href="#DejaVuSans-4e" transform="translate(120.5 0)"/>
     <use xlink:href="#DejaVuSans-3" transform="translate(178.40625 0)"/>
     <use xlink:href="#DejaVuSans-54" transform="translate(210.1875 0)"/>
     <use xlink:href="#DejaVuSans-58" transform="translate(273.671875 0)"/>
     <use xlink:href="#DejaVuSans-48" transform="translate(337.046875 0)"/>
     <use xlink:href="#DejaVuSans-56" transform="translate(398.578125 0)"/>
     <use xlink:href="#DejaVuSans-57" transform="translate(450.671875 0)"/>
     <use xlink:href="#DejaVuSans-4c" transform="translate(489.875 0)"/>
     <use xlink:href="#DejaVuSans-52" transform="translate(517.65625 0)"/>
     <use xlink:href="#DejaVuSans-51" transform="translate(578.84375 0)"/>
    </g>
   </g>
   <g id="text_11">
    <!-- POST /api/rag (stream) -->
    <g style="fill: #2c2c2a" transform="translate(131.294921 138.538324) scale(0.06 -0.06)">
     <defs>
      <path id="DejaVuSans-33" d="M 1259 4147 
L 1259 2394 
L 2053 2394 
Q 2494 2394 2734 2622 
Q 2975 2850 2975 3272 
Q 2975 3691 2734 3919 
Q 2494 4147 2053 4147 
L 1259 4147 
z
M 628 4666 
L 2053 4666 
Q 2838 4666 3239 4311 
Q 3641 3956 3641 3272 
Q 3641 2581 3239 2228 
Q 2838 1875 2053 1875 
L 1259 1875 
L 1259 0 
L 628 0 
L 628 4666 
z
" transform="scale(0.015625)"/>
      <path id="DejaVuSans-32" d="M 2522 4238 
Q 1834 4238 1429 3725 
Q 1025 3213 1025 2328 
Q 1025 1447 1429 934 
Q 1834 422 2522 422 
Q 3209 422 3611 934 
Q 4013 1447 4013 2328 
Q 4013 3213 3611 3725 
Q 3209 4238 2522 4238 
z
M 2522 4750 
Q 3503 4750 4090 4092 
Q 4678 3434 4678 2328 
Q 4678 1225 4090 567 
Q 3503 -91 2522 -91 
Q 1538 -91 948 565 
Q 359 1222 359 2328 
Q 359 3434 948 4092 
Q 1538 4750 2522 4750 
z
" transform="scale(0.015625)"/>
      <path id="DejaVuSans-36" d="M 3425 4513 
L 3425 3897 
Q 3066 4069 2747 4153 
Q 2428 4238 2131 4238 
Q 1616 4238 1336 4038 
Q 1056 3838 1056 3469 
Q 1056 3159 1242 3001 
Q 1428 2844 1947 2747 
L 2328 2669 
Q 3034 2534 3370 2195 
Q 3706 1856 3706 1288 
Q 3706 609 3251 259 
Q 2797 -91 1919 -91 
Q 1588 -91 1214 -16 
Q 841 59 441 206 
L 441 856 
Q 825 641 1194 531 
Q 1563 422 1919 422 
Q 2459 422 2753 634 
Q 3047 847 3047 1241 
Q 3047 1584 2836 1778 
Q 2625 1972 2144 2069 
L 1759 2144 
Q 1053 2284 737 2584 
Q 422 2884 422 3419 
Q 422 4038 858 4394 
Q 1294 4750 2059 4750 
Q 2388 4750 2728 4690 
Q 3069 4631 3425 4513 
z
" transform="scale(0.015625)"/>
      <path id="DejaVuSans-37" d="M -19 4666 
L 3928 4666 
L 3928 4134 
L 2272 4134 
L 2272 0 
L 1638 0 
L 1638 4134 
L -19 4134 
L -19 4666 
z
" transform="scale(0.015625)"/>
      <path id="DejaVuSans-12" d="M 1625 4666 
L 2156 4666 
L 531 -594 
L 0 -594 
L 1625 4666 
z
" transform="scale(0.015625)"/>
      <path id="DejaVuSans-44" d="M 2194 1759 
Q 1497 1759 1228 1600 
Q 959 1441 959 1056 
Q 959 750 1161 570 
Q 1363 391 1709 391 
Q 2188 391 2477 730 
Q 2766 1069 2766 1631 
L 2766 1759 
L 2194 1759 
z
M 3341 1997 
L 3341 0 
L 2766 0 
L 2766 531 
Q 2569 213 2275 61 
Q 1981 -91 1556 -91 
Q 1019 -91 701 211 
Q 384 513 384 1019 
Q 384 1609 779 1909 
Q 1175 2209 1959 2209 
L 2766 2209 
L 2766 2266 
Q 2766 2663 2505 2880 
Q 2244 3097 1772 3097 
Q 1472 3097 1187 3025 
Q 903 2953 641 2809 
L 641 3341 
Q 956 3463 1253 3523 
Q 1550 3584 1831 3584 
Q 2591 3584 2966 3190 
Q 3341 2797 3341 1997 
z
" transform="scale(0.015625)"/>
      <path id="DejaVuSans-53" d="M 1159 525 
L 1159 -1331 
L 581 -1331 
L 581 3500 
L 1159 3500 
L 1159 2969 
Q 1341 3281 1617 3432 
Q 1894 3584 2278 3584 
Q 2916 3584 3314 3078 
Q 3713 2572 3713 1747 
Q 3713 922 3314 415 
Q 2916 -91 2278 -91 
Q 1894 -91 1617 61 
Q 1341 213 1159 525 
z
M 3116 1747 
Q 3116 2381 2855 2742 
Q 2594 3103 2138 3103 
Q 1681 3103 1420 2742 
Q 1159 2381 1159 1747 
Q 1159 1113 1420 752 
Q 1681 391 2138 391 
Q 2594 391 2855 752 
Q 3116 1113 3116 1747 
z
" transform="scale(0.015625)"/>
      <path id="DejaVuSans-55" d="M 2631 2963 
Q 2534 3019 2420 3045 
Q 2306 3072 2169 3072 
Q 1681 3072 1420 2755 
Q 1159 2438 1159 1844 
L 1159 0 
L 581 0 
L 581 3500 
L 1159 3500 
L 1159 2956 
Q 1341 3275 1631 3429 
Q 1922 3584 2338 3584 
Q 2397 3584 2469 3576 
Q 2541 3569 2628 3553 
L 2631 2963 
z
" transform="scale(0.015625)"/>
      <path id="DejaVuSans-4a" d="M 2906 1791 
Q 2906 2416 2648 2759 
Q 2391 3103 1925 3103 
Q 1463 3103 1205 2759 
Q 947 2416 947 1791 
Q 947 1169 1205 825 
Q 1463 481 1925 481 
Q 2391 481 2648 825 
Q 2906 1169 2906 1791 
z
M 3481 434 
Q 3481 -459 3084 -895 
Q 2688 -1331 1869 -1331 
Q 1566 -1331 1297 -1286 
Q 1028 -1241 775 -1147 
L 775 -588 
Q 1028 -725 1275 -790 
Q 1522 -856 1778 -856 
Q 2344 -856 2625 -561 
Q 2906 -266 2906 331 
L 2906 616 
Q 2728 306 2450 153 
Q 2172 0 1784 0 
Q 1141 0 747 490 
Q 353 981 353 1791 
Q 353 2603 747 3093 
Q 1141 3584 1784 3584 
Q 2172 3584 2450 3431 
Q 2728 3278 2906 2969 
L 2906 3500 
L 3481 3500 
L 3481 434 
z
" transform="scale(0.015625)"/>
      <path id="DejaVuSans-b" d="M 1984 4856 
Q 1566 4138 1362 3434 
Q 1159 2731 1159 2009 
Q 1159 1288 1364 580 
Q 1569 -128 1984 -844 
L 1484 -844 
Q 1016 -109 783 600 
Q 550 1309 550 2009 
Q 550 2706 781 3412 
Q 1013 4119 1484 4856 
L 1984 4856 
z
" transform="scale(0.015625)"/>
      <path id="DejaVuSans-50" d="M 3328 2828 
Q 3544 3216 3844 3400 
Q 4144 3584 4550 3584 
Q 5097 3584 5394 3201 
Q 5691 2819 5691 2113 
L 5691 0 
L 5113 0 
L 5113 2094 
Q 5113 2597 4934 2840 
Q 4756 3084 4391 3084 
Q 3944 3084 3684 2787 
Q 3425 2491 3425 1978 
L 3425 0 
L 2847 0 
L 2847 2094 
Q 2847 2600 2669 2842 
Q 2491 3084 2119 3084 
Q 1678 3084 1418 2786 
Q 1159 2488 1159 1978 
L 1159 0 
L 581 0 
L 581 3500 
L 1159 3500 
L 1159 2956 
Q 1356 3278 1631 3431 
Q 1906 3584 2284 3584 
Q 2666 3584 2933 3390 
Q 3200 3197 3328 2828 
z
" transform="scale(0.015625)"/>
      <path id="DejaVuSans-c" d="M 513 4856 
L 1013 4856 
Q 1481 4119 1714 3412 
Q 1947 2706 1947 2009 
Q 1947 1309 1714 600 
Q 1481 -109 1013 -844 
L 513 -844 
Q 928 -128 1133 580 
Q 1338 1288 1338 2009 
Q 1338 2731 1133 3434 
Q 928 4138 513 4856 
z
" transform="scale(0.015625)"/>
     </defs>
     <use xlink:href="#DejaVuSans-33"/>
     <use xlink:href="#DejaVuSans-32" transform="translate(60.296875 0)"/>
     <use xlink:href="#DejaVuSans-36" transform="translate(139.015625 0)"/>
     <use xlink:href="#DejaVuSans-37" transform="translate(202.5 0)"/>
     <use xlink:href="#DejaVuSans-3" transform="translate(263.578125 0)"/>
     <use xlink:href="#DejaVuSans-12" transform="translate(295.359375 0)"/>
     <use xlink:href="#DejaVuSans-44" transform="translate(329.046875 0)"/>
     <use xlink:href="#DejaVuSans-53" transform="translate(390.328125 0)"/>
     <use xlink:href="#DejaVuSans-4c" transform="translate(453.8125 0)"/>
     <use xlink:href="#DejaVuSans-12" transform="translate(481.59375 0)"/>
     <use xlink:href="#DejaVuSans-55" transform="translate(515.28125 0)"/>
     <use xlink:href="#DejaVuSans-44" transform="translate(556.390625 0)"/>
     <use xlink:href="#DejaVuSans-4a" transform="translate(617.671875 0)"/>
     <use xlink:href="#DejaVuSans-3" transform="translate(681.15625 0)"/>
     <use xlink:href="#DejaVuSans-b" transform="translate(712.9375 0)"/>
     <use xlink:href="#DejaVuSans-56" transform="translate(751.953125 0)"/>
     <use xlink:href="#DejaVuSans-57" transform="translate(804.046875 0)"/>
     <use xlink:href="#DejaVuSans-55" transform="translate(843.25 0)"/>
     <use xlink:href="#DejaVuSans-48" transform="translate(882.15625 0)"/>
     <use xlink:href="#DejaVuSans-44" transform="translate(943.6875 0)"/>
     <use xlink:href="#DejaVuSans-50" transform="translate(1004.96875 0)"/>
     <use xlink:href="#DejaVuSans-c" transform="translate(1102.375 0)"/>
    </g>
   </g>
   <g id="text_12">
    <!-- Embed question -->
    <g style="fill: #2c2c2a" transform="translate(203.353133 166.812724) scale(0.06 -0.06)">
     <defs>
      <path id="DejaVuSans-28" d="M 628 4666 
L 3578 4666 
L 3578 4134 
L 1259 4134 
L 1259 2753 
L 3481 2753 
L 3481 2222 
L 1259 2222 
L 1259 531 
L 3634 531 
L 3634 0 
L 628 0 
L 628 4666 
z
" transform="scale(0.015625)"/>
      <path id="DejaVuSans-45" d="M 3116 1747 
Q 3116 2381 2855 2742 
Q 2594 3103 2138 3103 
Q 1681 3103 1420 2742 
Q 1159 2381 1159 1747 
Q 1159 1113 1420 752 
Q 1681 391 2138 391 
Q 2594 391 2855 752 
Q 3116 1113 3116 1747 
z
M 1159 2969 
Q 1341 3281 1617 3432 
Q 1894 3584 2278 3584 
Q 2916 3584 3314 3078 
Q 3713 2572 3713 1747 
Q 3713 922 3314 415 
Q 2916 -91 2278 -91 
Q 1894 -91 1617 61 
Q 1341 213 1159 525 
L 1159 0 
L 581 0 
L 581 4863 
L 1159 4863 
L 1159 2969 
z
" transform="scale(0.015625)"/>
      <path id="DejaVuSans-47" d="M 2906 2969 
L 2906 4863 
L 3481 4863 
L 3481 0 
L 2906 0 
L 2906 525 
Q 2725 213 2448 61 
Q 2172 -91 1784 -91 
Q 1150 -91 751 415 
Q 353 922 353 1747 
Q 353 2572 751 3078 
Q 1150 3584 1784 3584 
Q 2172 3584 2448 3432 
Q 2725 3281 2906 2969 
z
M 947 1747 
Q 947 1113 1208 752 
Q 1469 391 1925 391 
Q 2381 391 2643 752 
Q 2906 1113 2906 1747 
Q 2906 2381 2643 2742 
Q 2381 3103 1925 3103 
Q 1469 3103 1208 2742 
Q 947 2381 947 1747 
z
" transform="scale(0.015625)"/>
     </defs>
     <use xlink:href="#DejaVuSans-28"/>
     <use xlink:href="#DejaVuSans-50" transform="translate(63.1875 0)"/>
     <use xlink:href="#DejaVuSans-45" transform="translate(160.59375 0)"/>
     <use xlink:href="#DejaVuSans-48" transform="translate(224.078125 0)"/>
     <use xlink:href="#DejaVuSans-47" transform="translate(285.609375 0)"/>
     <use xlink:href="#DejaVuSans-3" transform="translate(349.09375 0)"/>
     <use xlink:href="#DejaVuSans-54" transform="translate(380.875 0)"/>
     <use xlink:href="#DejaVuSans-58" transform="translate(444.359375 0)"/>
     <use xlink:href="#DejaVuSans-48" transform="translate(507.734375 0)"/>
     <use xlink:href="#DejaVuSans-56" transform="translate(569.265625 0)"/>
     <use xlink:href="#DejaVuSans-57" transform="translate(621.359375 0)"/>
     <use xlink:href="#DejaVuSans-4c" transform="translate(660.5625 0)"/>
     <use xlink:href="#DejaVuSans-52" transform="translate(688.34375 0)"/>
     <use xlink:href="#DejaVuSans-51" transform="translate(749.53125 0)"/>
    </g>
   </g>
   <g id="text_13">
    <!-- vector -->
    <g style="fill: #2c2c2a" transform="translate(218.224226 195.08689) scale(0.06 -0.06)">
     <defs>
      <path id="DejaVuSans-59" d="M 191 3500 
L 800 3500 
L 1894 563 
L 2988 3500 
L 3597 3500 
L 2284 0 
L 1503 0 
L 191 3500 
z
" transform="scale(0.015625)"/>
      <path id="DejaVuSans-46" d="M 3122 3366 
L 3122 2828 
Q 2878 2963 2633 3030 
Q 2388 3097 2138 3097 
Q 1578 3097 1268 2742 
Q 959 2388 959 1747 
Q 959 1106 1268 751 
Q 1578 397 2138 397 
Q 2388 397 2633 464 
Q 2878 531 3122 666 
L 3122 134 
Q 2881 22 2623 -34 
Q 2366 -91 2075 -91 
Q 1284 -91 818 406 
Q 353 903 353 1747 
Q 353 2603 823 3093 
Q 1294 3584 2113 3584 
Q 2378 3584 2631 3529 
Q 2884 3475 3122 3366 
z
" transform="scale(0.015625)"/>
     </defs>
     <use xlink:href="#DejaVuSans-59"/>
     <use xlink:href="#DejaVuSans-48" transform="translate(59.1875 0)"/>
     <use xlink:href="#DejaVuSans-46" transform="translate(120.71875 0)"/>
     <use xlink:href="#DejaVuSans-57" transform="translate(175.703125 0)"/>
     <use xlink:href="#DejaVuSans-52" transform="translate(214.90625 0)"/>
     <use xlink:href="#DejaVuSans-55" transform="translate(276.09375 0)"/>
    </g>
   </g>
   <g id="text_14">
    <!-- Retrieve context chunks -->
    <g style="fill: #2c2c2a" transform="translate(222.468098 223.361524) scale(0.06 -0.06)">
     <defs>
      <path id="DejaVuSans-35" d="M 2841 2188 
Q 3044 2119 3236 1894 
Q 3428 1669 3622 1275 
L 4263 0 
L 3584 0 
L 2988 1197 
Q 2756 1666 2539 1819 
Q 2322 1972 1947 1972 
L 1259 1972 
L 1259 0 
L 628 0 
L 628 4666 
L 2053 4666 
Q 2853 4666 3247 4331 
Q 3641 3997 3641 3322 
Q 3641 2881 3436 2590 
Q 3231 2300 2841 2188 
z
M 1259 4147 
L 1259 2491 
L 2053 2491 
Q 2509 2491 2742 2702 
Q 2975 2913 2975 3322 
Q 2975 3731 2742 3939 
Q 2509 4147 2053 4147 
L 1259 4147 
z
" transform="scale(0.015625)"/>
      <path id="DejaVuSans-5b" d="M 3513 3500 
L 2247 1797 
L 3578 0 
L 2900 0 
L 1881 1375 
L 863 0 
L 184 0 
L 1544 1831 
L 300 3500 
L 978 3500 
L 1906 2253 
L 2834 3500 
L 3513 3500 
z
" transform="scale(0.015625)"/>
      <path id="DejaVuSans-4b" d="M 3513 2113 
L 3513 0 
L 2938 0 
L 2938 2094 
Q 2938 2591 2744 2837 
Q 2550 3084 2163 3084 
Q 1697 3084 1428 2787 
Q 1159 2491 1159 1978 
L 1159 0 
L 581 0 
L 581 4863 
L 1159 4863 
L 1159 2956 
Q 1366 3272 1645 3428 
Q 1925 3584 2291 3584 
Q 2894 3584 3203 3211 
Q 3513 2838 3513 2113 
z
" transform="scale(0.015625)"/>
     </defs>
     <use xlink:href="#DejaVuSans-35"/>
     <use xlink:href="#DejaVuSans-48" transform="translate(65 0)"/>
     <use xlink:href="#DejaVuSans-57" transform="translate(126.53125 0)"/>
     <use xlink:href="#DejaVuSans-55" transform="translate(165.734375 0)"/>
     <use xlink:href="#DejaVuSans-4c" transform="translate(206.84375 0)"/>
     <use xlink:href="#DejaVuSans-48" transform="translate(234.625 0)"/>
     <use xlink:href="#DejaVuSans-59" transform="translate(296.15625 0)"/>
     <use xlink:href="#DejaVuSans-48" transform="translate(355.34375 0)"/>
     <use xlink:href="#DejaVuSans-3" transform="translate(416.875 0)"/>
     <use xlink:href="#DejaVuSans-46" transform="translate(448.65625 0)"/>
     <use xlink:href="#DejaVuSans-52" transform="translate(503.640625 0)"/>
     <use xlink:href="#DejaVuSans-51" transform="translate(564.828125 0)"/>
     <use xlink:href="#DejaVuSans-57" transform="translate(628.203125 0)"/>
     <use xlink:href="#DejaVuSans-48" transform="translate(667.40625 0)"/>
     <use xlink:href="#DejaVuSans-5b" transform="translate(727.1875 0)"/>
     <use xlink:href="#DejaVuSans-57" transform="translate(786.375 0)"/>
     <use xlink:href="#DejaVuSans-3" transform="translate(825.578125 0)"/>
     <use xlink:href="#DejaVuSans-46" transform="translate(857.359375 0)"/>
     <use xlink:href="#DejaVuSans-4b" transform="translate(912.34375 0)"/>
     <use xlink:href="#DejaVuSans-58" transform="translate(975.71875 0)"/>
     <use xlink:href="#DejaVuSans-51" transform="translate(1039.09375 0)"/>
     <use xlink:href="#DejaVuSans-4e" transform="translate(1102.46875 0)"/>
     <use xlink:href="#DejaVuSans-56" transform="translate(1160.375 0)"/>
    </g>
   </g>
   <g id="text_15">
    <!-- top-k passages -->
    <g style="fill: #2c2c2a" transform="translate(236.132629 251.635924) scale(0.06 -0.06)">
     <defs>
      <path id="DejaVuSans-10" d="M 313 2009 
L 1997 2009 
L 1997 1497 
L 313 1497 
L 313 2009 
z
" transform="scale(0.015625)"/>
     </defs>
     <use xlink:href="#DejaVuSans-57"/>
     <use xlink:href="#DejaVuSans-52" transform="translate(39.203125 0)"/>
     <use xlink:href="#DejaVuSans-53" transform="translate(100.390625 0)"/>
     <use xlink:href="#DejaVuSans-10" transform="translate(163.875 0)"/>
     <use xlink:href="#DejaVuSans-4e" transform="translate(199.953125 0)"/>
     <use xlink:href="#DejaVuSans-3" transform="translate(257.859375 0)"/>
     <use xlink:href="#DejaVuSans-53" transform="translate(289.640625 0)"/>
     <use xlink:href="#DejaVuSans-44" transform="translate(353.125 0)"/>
     <use xlink:href="#DejaVuSans-56" transform="translate(414.40625 0)"/>
     <use xlink:href="#DejaVuSans-56" transform="translate(466.5 0)"/>
     <use xlink:href="#DejaVuSans-44" transform="translate(518.59375 0)"/>
     <use xlink:href="#DejaVuSans-4a" transform="translate(579.875 0)"/>
     <use xlink:href="#DejaVuSans-48" transform="translate(643.359375 0)"/>
     <use xlink:href="#DejaVuSans-56" transform="translate(704.890625 0)"/>
    </g>
   </g>
   <g id="text_16">
    <!-- Load passage metadata -->
    <g style="fill: #2c2c2a" transform="translate(253.841813 279.910324) scale(0.06 -0.06)">
     <defs>
      <path id="DejaVuSans-2f" d="M 628 4666 
L 1259 4666 
L 1259 531 
L 3531 531 
L 3531 0 
L 628 0 
L 628 4666 
z
" transform="scale(0.015625)"/>
     </defs>
     <use xlink:href="#DejaVuSans-2f"/>
     <use xlink:href="#DejaVuSans-52" transform="translate(53.96875 0)"/>
     <use xlink:href="#DejaVuSans-44" transform="translate(115.15625 0)"/>
     <use xlink:href="#DejaVuSans-47" transform="translate(176.4375 0)"/>
     <use xlink:href="#DejaVuSans-3" transform="translate(239.921875 0)"/>
     <use xlink:href="#DejaVuSans-53" transform="translate(271.703125 0)"/>
     <use xlink:href="#DejaVuSans-44" transform="translate(335.1875 0)"/>
     <use xlink:href="#DejaVuSans-56" transform="translate(396.46875 0)"/>
     <use xlink:href="#DejaVuSans-56" transform="translate(448.5625 0)"/>
     <use xlink:href="#DejaVuSans-44" transform="translate(500.65625 0)"/>
     <use xlink:href="#DejaVuSans-4a" transform="translate(561.9375 0)"/>
     <use xlink:href="#DejaVuSans-48" transform="translate(625.421875 0)"/>
     <use xlink:href="#DejaVuSans-3" transform="translate(686.953125 0)"/>
     <use xlink:href="#DejaVuSans-50" transform="translate(718.734375 0)"/>
     <use xlink:href="#DejaVuSans-48" transform="translate(816.140625 0)"/>
     <use xlink:href="#DejaVuSans-57" transform="translate(877.671875 0)"/>
     <use xlink:href="#DejaVuSans-44" transform="translate(916.875 0)"/>
     <use xlink:href="#DejaVuSans-47" transform="translate(978.15625 0)"/>
     <use xlink:href="#DejaVuSans-44" transform="translate(1041.640625 0)"/>
     <use xlink:href="#DejaVuSans-57" transform="translate(1102.921875 0)"/>
     <use xlink:href="#DejaVuSans-44" transform="translate(1142.125 0)"/>
    </g>
   </g>
   <g id="text_17">
    <!-- titles / CEFR / urls -->
    <g style="fill: #2c2c2a" transform="translate(263.349938 308.184724) scale(0.06 -0.06)">
     <defs>
      <path id="DejaVuSans-4f" d="M 603 4863 
L 1178 4863 
L 1178 0 
L 603 0 
L 603 4863 
z
" transform="scale(0.015625)"/>
      <path id="DejaVuSans-26" d="M 4122 4306 
L 4122 3641 
Q 3803 3938 3442 4084 
Q 3081 4231 2675 4231 
Q 1875 4231 1450 3742 
Q 1025 3253 1025 2328 
Q 1025 1406 1450 917 
Q 1875 428 2675 428 
Q 3081 428 3442 575 
Q 3803 722 4122 1019 
L 4122 359 
Q 3791 134 3420 21 
Q 3050 -91 2638 -91 
Q 1578 -91 968 557 
Q 359 1206 359 2328 
Q 359 3453 968 4101 
Q 1578 4750 2638 4750 
Q 3056 4750 3426 4639 
Q 3797 4528 4122 4306 
z
" transform="scale(0.015625)"/>
      <path id="DejaVuSans-29" d="M 628 4666 
L 3309 4666 
L 3309 4134 
L 1259 4134 
L 1259 2759 
L 3109 2759 
L 3109 2228 
L 1259 2228 
L 1259 0 
L 628 0 
L 628 4666 
z
" transform="scale(0.015625)"/>
     </defs>
     <use xlink:href="#DejaVuSans-57"/>
     <use xlink:href="#DejaVuSans-4c" transform="translate(39.203125 0)"/>
     <use xlink:href="#DejaVuSans-57" transform="translate(66.984375 0)"/>
     <use xlink:href="#DejaVuSans-4f" transform="translate(106.1875 0)"/>
     <use xlink:href="#DejaVuSans-48" transform="translate(133.96875 0)"/>
     <use xlink:href="#DejaVuSans-56" transform="translate(195.5 0)"/>
     <use xlink:href="#DejaVuSans-3" transform="translate(247.59375 0)"/>
     <use xlink:href="#DejaVuSans-12" transform="translate(279.375 0)"/>
     <use xlink:href="#DejaVuSans-3" transform="translate(313.0625 0)"/>
     <use xlink:href="#DejaVuSans-26" transform="translate(344.84375 0)"/>
     <use xlink:href="#DejaVuSans-28" transform="translate(414.671875 0)"/>
     <use xlink:href="#DejaVuSans-29" transform="translate(477.859375 0)"/>
     <use xlink:href="#DejaVuSans-35" transform="translate(535.375 0)"/>
     <use xlink:href="#DejaVuSans-3" transform="translate(604.859375 0)"/>
     <use xlink:href="#DejaVuSans-12" transform="translate(636.640625 0)"/>
     <use xlink:href="#DejaVuSans-3" transform="translate(670.328125 0)"/>
     <use xlink:href="#DejaVuSans-58" transform="translate(702.109375 0)"/>
     <use xlink:href="#DejaVuSans-55" transform="translate(765.484375 0)"/>
     <use xlink:href="#DejaVuSans-4f" transform="translate(806.59375 0)"/>
     <use xlink:href="#DejaVuSans-56" transform="translate(834.375 0)"/>
    </g>
   </g>
   <g id="text_18">
    <!-- Build grounded prompt -->
    <g style="fill: #2c2c2a" transform="translate(286.333028 336.459124) scale(0.06 -0.06)">
     <defs>
      <path id="DejaVuSans-25" d="M 1259 2228 
L 1259 519 
L 2272 519 
Q 2781 519 3026 730 
Q 3272 941 3272 1375 
Q 3272 1813 3026 2020 
Q 2781 2228 2272 2228 
L 1259 2228 
z
M 1259 4147 
L 1259 2741 
L 2194 2741 
Q 2656 2741 2882 2914 
Q 3109 3088 3109 3444 
Q 3109 3797 2882 3972 
Q 2656 4147 2194 4147 
L 1259 4147 
z
M 628 4666 
L 2241 4666 
Q 2963 4666 3353 4366 
Q 3744 4066 3744 3513 
Q 3744 3084 3544 2831 
Q 3344 2578 2956 2516 
Q 3422 2416 3680 2098 
Q 3938 1781 3938 1306 
Q 3938 681 3513 340 
Q 3088 0 2303 0 
L 628 0 
L 628 4666 
z
" transform="scale(0.015625)"/>
     </defs>
     <use xlink:href="#DejaVuSans-25"/>
     <use xlink:href="#DejaVuSans-58" transform="translate(68.609375 0)"/>
     <use xlink:href="#DejaVuSans-4c" transform="translate(131.984375 0)"/>
     <use xlink:href="#DejaVuSans-4f" transform="translate(159.765625 0)"/>
     <use xlink:href="#DejaVuSans-47" transform="translate(187.546875 0)"/>
     <use xlink:href="#DejaVuSans-3" transform="translate(251.03125 0)"/>
     <use xlink:href="#DejaVuSans-4a" transform="translate(282.8125 0)"/>
     <use xlink:href="#DejaVuSans-55" transform="translate(346.296875 0)"/>
     <use xlink:href="#DejaVuSans-52" transform="translate(385.203125 0)"/>
     <use xlink:href="#DejaVuSans-58" transform="translate(446.390625 0)"/>
     <use xlink:href="#DejaVuSans-51" transform="translate(509.765625 0)"/>
     <use xlink:href="#DejaVuSans-47" transform="translate(573.140625 0)"/>
     <use xlink:href="#DejaVuSans-48" transform="translate(636.625 0)"/>
     <use xlink:href="#DejaVuSans-47" transform="translate(698.15625 0)"/>
     <use xlink:href="#DejaVuSans-3" transform="translate(761.640625 0)"/>
     <use xlink:href="#DejaVuSans-53" transform="translate(793.421875 0)"/>
     <use xlink:href="#DejaVuSans-55" transform="translate(856.90625 0)"/>
     <use xlink:href="#DejaVuSans-52" transform="translate(895.8125 0)"/>
     <use xlink:href="#DejaVuSans-50" transform="translate(957 0)"/>
     <use xlink:href="#DejaVuSans-53" transform="translate(1054.40625 0)"/>
     <use xlink:href="#DejaVuSans-57" transform="translate(1117.890625 0)"/>
    </g>
   </g>
   <g id="text_19">
    <!-- messages[] -->
    <g style="fill: #2c2c2a" transform="translate(303.659434 364.733524) scale(0.06 -0.06)">
     <defs>
      <path id="DejaVuSans-3e" d="M 550 4863 
L 1875 4863 
L 1875 4416 
L 1125 4416 
L 1125 -397 
L 1875 -397 
L 1875 -844 
L 550 -844 
L 550 4863 
z
" transform="scale(0.015625)"/>
      <path id="DejaVuSans-40" d="M 1947 4863 
L 1947 -844 
L 622 -844 
L 622 -397 
L 1369 -397 
L 1369 4416 
L 622 4416 
L 622 4863 
L 1947 4863 
z
" transform="scale(0.015625)"/>
     </defs>
     <use xlink:href="#DejaVuSans-50"/>
     <use xlink:href="#DejaVuSans-48" transform="translate(97.40625 0)"/>
     <use xlink:href="#DejaVuSans-56" transform="translate(158.9375 0)"/>
     <use xlink:href="#DejaVuSans-56" transform="translate(211.03125 0)"/>
     <use xlink:href="#DejaVuSans-44" transform="translate(263.125 0)"/>
     <use xlink:href="#DejaVuSans-4a" transform="translate(324.40625 0)"/>
     <use xlink:href="#DejaVuSans-48" transform="translate(387.890625 0)"/>
     <use xlink:href="#DejaVuSans-56" transform="translate(449.421875 0)"/>
     <use xlink:href="#DejaVuSans-3e" transform="translate(501.515625 0)"/>
     <use xlink:href="#DejaVuSans-40" transform="translate(540.53125 0)"/>
    </g>
   </g>
   <g id="text_20">
    <!-- chat.completions (stream) -->
    <g style="fill: #2c2c2a" transform="translate(312.52143 393.007924) scale(0.06 -0.06)">
     <defs>
      <path id="DejaVuSans-11" d="M 684 794 
L 1344 794 
L 1344 0 
L 684 0 
L 684 794 
z
" transform="scale(0.015625)"/>
     </defs>
     <use xlink:href="#DejaVuSans-46"/>
     <use xlink:href="#DejaVuSans-4b" transform="translate(54.984375 0)"/>
     <use xlink:href="#DejaVuSans-44" transform="translate(118.359375 0)"/>
     <use xlink:href="#DejaVuSans-57" transform="translate(179.640625 0)"/>
     <use xlink:href="#DejaVuSans-11" transform="translate(218.84375 0)"/>
     <use xlink:href="#DejaVuSans-46" transform="translate(250.625 0)"/>
     <use xlink:href="#DejaVuSans-52" transform="translate(305.609375 0)"/>
     <use xlink:href="#DejaVuSans-50" transform="translate(366.796875 0)"/>
     <use xlink:href="#DejaVuSans-53" transform="translate(464.203125 0)"/>
     <use xlink:href="#DejaVuSans-4f" transform="translate(527.6875 0)"/>
     <use xlink:href="#DejaVuSans-48" transform="translate(555.46875 0)"/>
     <use xlink:href="#DejaVuSans-57" transform="translate(617 0)"/>
     <use xlink:href="#DejaVuSans-4c" transform="translate(656.203125 0)"/>
     <use xlink:href="#DejaVuSans-52" transform="translate(683.984375 0)"/>
     <use xlink:href="#DejaVuSans-51" transform="translate(745.171875 0)"/>
     <use xlink:href="#DejaVuSans-56" transform="translate(808.546875 0)"/>
     <use xlink:href="#DejaVuSans-3" transform="translate(860.640625 0)"/>
     <use xlink:href="#DejaVuSans-b" transform="translate(892.421875 0)"/>
     <use xlink:href="#DejaVuSans-56" transform="translate(931.4375 0)"/>
     <use xlink:href="#DejaVuSans-57" transform="translate(983.53125 0)"/>
     <use xlink:href="#DejaVuSans-55" transform="translate(1022.734375 0)"/>
     <use xlink:href="#DejaVuSans-48" transform="translate(1061.640625 0)"/>
     <use xlink:href="#DejaVuSans-44" transform="translate(1123.171875 0)"/>
     <use xlink:href="#DejaVuSans-50" transform="translate(1184.453125 0)"/>
     <use xlink:href="#DejaVuSans-c" transform="translate(1281.859375 0)"/>
    </g>
   </g>
   <g id="text_21">
    <!-- token chunks -->
    <g style="fill: #2c2c2a" transform="translate(332.151743 421.282324) scale(0.06 -0.06)">
     <use xlink:href="#DejaVuSans-57"/>
     <use xlink:href="#DejaVuSans-52" transform="translate(39.203125 0)"/>
     <use xlink:href="#DejaVuSans-4e" transform="translate(100.390625 0)"/>
     <use xlink:href="#DejaVuSans-48" transform="translate(154.734375 0)"/>
     <use xlink:href="#DejaVuSans-51" transform="translate(216.265625 0)"/>
     <use xlink:href="#DejaVuSans-3" transform="translate(279.640625 0)"/>
     <use xlink:href="#DejaVuSans-46" transform="translate(311.421875 0)"/>
     <use xlink:href="#DejaVuSans-4b" transform="translate(366.40625 0)"/>
     <use xlink:href="#DejaVuSans-58" transform="translate(429.78125 0)"/>
     <use xlink:href="#DejaVuSans-51" transform="translate(493.15625 0)"/>
     <use xlink:href="#DejaVuSans-4e" transform="translate(556.53125 0)"/>
     <use xlink:href="#DejaVuSans-56" transform="translate(614.4375 0)"/>
    </g>
   </g>
   <g id="text_22">
    <!-- SSE / WebSocket tokens -->
    <g style="fill: #2c2c2a" transform="translate(129.426015 449.556724) scale(0.06 -0.06)">
     <defs>
      <path id="DejaVuSans-3a" d="M 213 4666 
L 850 4666 
L 1831 722 
L 2809 4666 
L 3519 4666 
L 4500 722 
L 5478 4666 
L 6119 4666 
L 4947 0 
L 4153 0 
L 3169 4050 
L 2175 0 
L 1381 0 
L 213 4666 
z
" transform="scale(0.015625)"/>
     </defs>
     <use xlink:href="#DejaVuSans-36"/>
     <use xlink:href="#DejaVuSans-36" transform="translate(63.484375 0)"/>
     <use xlink:href="#DejaVuSans-28" transform="translate(126.96875 0)"/>
     <use xlink:href="#DejaVuSans-3" transform="translate(190.15625 0)"/>
     <use xlink:href="#DejaVuSans-12" transform="translate(221.9375 0)"/>
     <use xlink:href="#DejaVuSans-3" transform="translate(255.625 0)"/>
     <use xlink:href="#DejaVuSans-3a" transform="translate(287.40625 0)"/>
     <use xlink:href="#DejaVuSans-48" transform="translate(380.421875 0)"/>
     <use xlink:href="#DejaVuSans-45" transform="translate(441.953125 0)"/>
     <use xlink:href="#DejaVuSans-36" transform="translate(505.4375 0)"/>
     <use xlink:href="#DejaVuSans-52" transform="translate(568.921875 0)"/>
     <use xlink:href="#DejaVuSans-46" transform="translate(630.109375 0)"/>
     <use xlink:href="#DejaVuSans-4e" transform="translate(685.09375 0)"/>
     <use xlink:href="#DejaVuSans-48" transform="translate(739.4375 0)"/>
     <use xlink:href="#DejaVuSans-57" transform="translate(800.96875 0)"/>
     <use xlink:href="#DejaVuSans-3" transform="translate(840.171875 0)"/>
     <use xlink:href="#DejaVuSans-57" transform="translate(871.953125 0)"/>
     <use xlink:href="#DejaVuSans-52" transform="translate(911.15625 0)"/>
     <use xlink:href="#DejaVuSans-4e" transform="translate(972.34375 0)"/>
     <use xlink:href="#DejaVuSans-48" transform="translate(1026.6875 0)"/>
     <use xlink:href="#DejaVuSans-51" transform="translate(1088.21875 0)"/>
     <use xlink:href="#DejaVuSans-56" transform="translate(1151.59375 0)"/>
    </g>
   </g>
   <g id="text_23">
    <!-- Render streaming answer -->
    <g style="fill: #2c2c2a" transform="translate(64.758116 477.831124) scale(0.06 -0.06)">
     <defs>
      <path id="DejaVuSans-5a" d="M 269 3500 
L 844 3500 
L 1563 769 
L 2278 3500 
L 2956 3500 
L 3675 769 
L 4391 3500 
L 4966 3500 
L 4050 0 
L 3372 0 
L 2619 2869 
L 1863 0 
L 1184 0 
L 269 3500 
z
" transform="scale(0.015625)"/>
     </defs>
     <use xlink:href="#DejaVuSans-35"/>
     <use xlink:href="#DejaVuSans-48" transform="translate(65 0)"/>
     <use xlink:href="#DejaVuSans-51" transform="translate(126.53125 0)"/>
     <use xlink:href="#DejaVuSans-47" transform="translate(189.90625 0)"/>
     <use xlink:href="#DejaVuSans-48" transform="translate(253.390625 0)"/>
     <use xlink:href="#DejaVuSans-55" transform="translate(314.921875 0)"/>
     <use xlink:href="#DejaVuSans-3" transform="translate(356.03125 0)"/>
     <use xlink:href="#DejaVuSans-56" transform="translate(387.8125 0)"/>
     <use xlink:href="#DejaVuSans-57" transform="translate(439.90625 0)"/>
     <use xlink:href="#DejaVuSans-55" transform="translate(479.109375 0)"/>
     <use xlink:href="#DejaVuSans-48" transform="translate(518.015625 0)"/>
     <use xlink:href="#DejaVuSans-44" transform="translate(579.546875 0)"/>
     <use xlink:href="#DejaVuSans-50" transform="translate(640.828125 0)"/>
     <use xlink:href="#DejaVuSans-4c" transform="translate(738.234375 0)"/>
     <use xlink:href="#DejaVuSans-51" transform="translate(766.015625 0)"/>
     <use xlink:href="#DejaVuSans-4a" transform="translate(829.390625 0)"/>
     <use xlink:href="#DejaVuSans-3" transform="translate(892.875 0)"/>
     <use xlink:href="#DejaVuSans-44" transform="translate(924.65625 0)"/>
     <use xlink:href="#DejaVuSans-51" transform="translate(985.9375 0)"/>
     <use xlink:href="#DejaVuSans-56" transform="translate(1049.3125 0)"/>
     <use xlink:href="#DejaVuSans-5a" transform="translate(1101.40625 0)"/>
     <use xlink:href="#DejaVuSans-48" transform="translate(1183.1875 0)"/>
     <use xlink:href="#DejaVuSans-55" transform="translate(1244.71875 0)"/>
    </g>
   </g>
  </g>
 </g>
 <defs>
  <clipPath id="pd1b72f66bc">
   <rect x="7.2" y="7.2" width="565.488" height="565.488"/>
  </clipPath>
 </defs>
</svg>
